<svg width="40" height="40" viewBox="0 0 40 40" fill="none" xmlns="http://www.w3.org/2000/svg">
<g clip-path="url(#clip0)">
<path d="M19.9986 34.5309C19.9952 34.5309 19.9916 34.5309 19.9879 34.5309C18.7809 34.5227 8.11075 34.4253 5.08767 33.6078C2.97494 33.0398 1.30715 31.3739 0.737687 29.2608C-0.0533298 26.2912 -0.00297568 20.5737 0.0025175 20.1172C-0.0026705 19.6627 -0.053635 13.898 0.735246 10.9039C0.736161 10.9011 0.736772 10.8981 0.737687 10.8953C1.30074 8.8064 3.00606 7.08887 5.08248 6.51941C5.08767 6.51788 5.09316 6.51666 5.09835 6.51514C8.08725 5.72961 18.7785 5.63348 19.9879 5.62524H20.0096C21.2196 5.63348 31.9182 5.73084 34.9135 6.54962C37.0207 7.11603 38.6873 8.77985 39.2583 10.8901C40.0789 13.8864 40.0029 19.6637 39.9947 20.1513C40.0005 20.6317 40.0484 26.2979 39.2619 29.2825C39.2613 29.2856 39.2604 29.2883 39.2598 29.2911C38.69 31.4041 37.0225 33.0701 34.9074 33.6386C34.9046 33.6395 34.9016 33.6401 34.8988 33.641C31.9102 34.4263 21.2187 34.5224 20.0096 34.5309C20.0059 34.5309 20.0022 34.5309 19.9986 34.5309ZM3.75588 11.7053C3.0613 14.3481 3.12691 20.0393 3.12752 20.0967V20.1379C3.10677 21.7163 3.17971 26.2872 3.75619 28.4521C4.03573 29.4888 4.85818 30.31 5.90127 30.5905C8.1318 31.1938 16.8223 31.3836 19.9986 31.4059C23.1831 31.3836 31.8864 31.199 34.1005 30.6198C35.1402 30.3384 35.9599 29.5199 36.2413 28.482C36.8184 26.2854 36.8907 21.7367 36.8697 20.1684C36.8697 20.1519 36.8697 20.1355 36.87 20.119C36.8986 18.5217 36.8422 13.8974 36.244 11.715C36.2434 11.7129 36.2428 11.7108 36.2425 11.7086C35.9618 10.6674 35.139 9.84614 34.0959 9.56568C31.887 8.96174 23.1825 8.77253 19.9986 8.75025C16.8162 8.77253 8.12143 8.95685 5.90066 9.53547C4.8774 9.81928 4.03634 10.6698 3.75588 11.7053ZM37.751 28.8846H37.7519H37.751ZM16.0157 26.4059V13.75L26.9533 20.0781L16.0157 26.4059Z" fill="#494949"/>
</g>
<defs>
<clipPath id="clip0">
<rect width="40" height="40" fill="white"/>
</clipPath>
</defs>
</svg>
