<svg width="38" height="38" viewBox="0 0 38 38" fill="none" xmlns="http://www.w3.org/2000/svg">
<g clip-path="url(#clip0)">
<path d="M5.58871 32.4131C7.3298 34.1541 9.35794 35.5213 11.617 36.4768C13.9572 37.4666 16.4415 37.9684 19.0009 37.9684C21.5602 37.9684 24.0445 37.4666 26.3848 36.4768C28.6438 35.5213 30.672 34.154 32.4131 32.4131C34.1542 30.6719 35.5215 28.6438 36.4768 26.3847C37.4667 24.0445 37.9686 21.5601 37.9686 19.0009C37.9686 16.4414 37.4667 13.9572 36.4768 11.617C35.5215 9.35794 34.1541 7.3298 32.4131 5.58871C30.672 3.84762 28.6438 2.48038 26.3848 1.52493C24.0445 0.535035 21.5602 0.0332031 19.0009 0.0332031C16.4415 0.0332031 13.9572 0.5351 11.617 1.52493C9.35794 2.48038 7.3298 3.84768 5.58871 5.58871C3.84762 7.32974 2.48038 9.35794 1.52487 11.6169C0.5351 13.9572 0.0332031 16.4414 0.0332031 19.0009C0.0332031 21.5602 0.5351 24.0445 1.52493 26.3847C2.48038 28.6438 3.84768 30.6719 5.58871 32.4131ZM19.0009 2.8022C27.9472 2.8022 35.1995 10.0546 35.1995 19.0009C35.1995 27.9471 27.9472 35.1994 19.0009 35.1994C10.0546 35.1994 2.8022 27.9471 2.8022 19.0009C2.8022 10.0546 10.0546 2.8022 19.0009 2.8022Z" fill="#6757C8"/>
<path d="M19 38.0008C16.4361 38.0008 13.9476 37.4981 11.6035 36.5067C9.34058 35.5495 7.30895 34.1799 5.56501 32.436C3.82094 30.6918 2.45138 28.6601 1.49431 26.3974C0.502737 24.0531 0 21.5646 0 19.001C0 16.4373 0.502737 13.9487 1.49425 11.6044C2.45131 9.34162 3.82094 7.30999 5.56494 5.56592C7.30895 3.82185 9.34064 2.45229 11.6034 1.49523C13.9477 0.503713 16.4363 0.000976562 18.9999 0.000976562C21.5638 0.000976562 24.0523 0.503713 26.3964 1.49529C28.6592 2.45235 30.6909 3.82198 32.435 5.56598C34.1791 7.31018 35.5487 9.34181 36.5057 11.6044C37.4973 13.9488 38 16.4373 38 19.001C38 21.5646 37.4973 24.0531 36.5057 26.3974C35.5487 28.6601 34.1792 30.6918 32.435 32.436C30.691 34.1799 28.6593 35.5495 26.3964 36.5067C24.0523 37.4981 21.5638 38.0008 19 38.0008ZM19 0.0656123C16.445 0.0656123 13.965 0.566604 11.6287 1.55476C9.3736 2.50858 7.34883 3.8735 5.61071 5.61162C3.87252 7.3498 2.50761 9.37452 1.55378 11.6295C0.565627 13.9659 0.0646357 16.446 0.0646357 19.001C0.0646357 21.5558 0.565627 24.036 1.55378 26.3723C2.50761 28.6274 3.87252 30.6521 5.61071 32.3903C7.34876 34.1283 9.37348 35.4932 11.6287 36.4471C13.9647 37.4352 16.4448 37.9362 19 37.9362C21.5552 37.9362 24.0352 37.4352 26.3713 36.4471C28.6265 35.4932 30.6512 34.1283 32.3893 32.3903C34.1275 30.6519 35.4924 28.6272 36.4461 26.3723C37.4343 24.036 37.9354 21.5559 37.9354 19.001C37.9354 16.446 37.4343 13.9659 36.4461 11.6297C35.4925 9.37471 34.1275 7.35 32.3893 5.61168C30.6511 3.87356 28.6263 2.50865 26.3713 1.55482C24.0351 0.566604 21.5551 0.0656123 19 0.0656123ZM19 35.2318C14.6646 35.2318 10.5886 33.5436 7.52295 30.478C4.45735 27.4123 2.769 23.3364 2.769 19.001C2.769 14.6655 4.45728 10.5895 7.52295 7.52393C10.5886 4.45832 14.6646 2.76997 19 2.76997C23.3354 2.76997 27.4114 4.45832 30.477 7.52393C33.5427 10.5896 35.2309 14.6655 35.2309 19.001C35.2309 23.3364 33.5427 27.4123 30.477 30.478C27.4114 33.5436 23.3354 35.2318 19 35.2318ZM19 2.83461C14.6818 2.83461 10.6221 4.51624 7.56865 7.56963C4.51526 10.6231 2.83363 14.6828 2.83363 19.001C2.83363 23.3192 4.51526 27.3789 7.56865 30.4322C10.622 33.4856 14.6818 35.1672 19 35.1672C23.3182 35.1672 27.3779 33.4856 30.4313 30.4322C33.4847 27.3789 35.1663 23.3191 35.1663 19.001C35.1663 14.6828 33.4847 10.623 30.4313 7.56963C27.3778 4.51617 23.3182 2.83461 19 2.83461Z" fill="#6757C8"/>
<path d="M14.8023 25.9064C15.0619 26.1661 15.4141 26.3119 15.7813 26.3119C16.1485 26.3119 16.5006 26.1661 16.7602 25.9064L28.6135 14.0532C29.1542 13.5125 29.1542 12.6359 28.6135 12.0952C28.0728 11.5546 27.1962 11.5545 26.6555 12.0952L15.7813 22.9696L11.3469 18.5351C10.8062 17.9943 9.92959 17.9943 9.38891 18.5351C8.84823 19.0758 8.84823 19.9524 9.38891 20.493L14.8023 25.9064Z" fill="#6757C8"/>
<path d="M15.7802 26.3433C15.4018 26.3433 15.0459 26.196 14.7783 25.9284L9.36497 20.515C8.81259 19.9626 8.81259 19.0637 9.36497 18.5113C9.63256 18.2436 9.98838 18.0963 10.3668 18.0963C10.7453 18.0963 11.101 18.2436 11.3687 18.5113L15.7803 22.9229L26.6316 12.0715C26.8992 11.8038 27.255 11.6565 27.6335 11.6565C28.0119 11.6565 28.3677 11.8039 28.6353 12.0715C28.903 12.339 29.0504 12.6949 29.0504 13.0733C29.0504 13.4518 28.903 13.8075 28.6353 14.0752L16.782 25.9284C16.5145 26.196 16.1587 26.3433 15.7802 26.3433ZM10.3668 18.161C10.0056 18.161 9.6661 18.3016 9.41073 18.5571C8.88356 19.0843 8.88356 19.9421 9.41073 20.4693L14.8241 25.8827C15.0795 26.1381 15.419 26.2787 15.7802 26.2787C16.1414 26.2787 16.481 26.1381 16.7364 25.8827L28.5896 14.0295C28.845 13.7741 28.9857 13.4345 28.9857 13.0734C28.9857 12.7123 28.845 12.3726 28.5896 12.1172C28.3342 11.8618 27.9946 11.7212 27.6334 11.7212C27.2722 11.7212 26.9326 11.8618 26.6773 12.1172L15.7802 23.0143L11.3229 18.5571C11.0675 18.3016 10.728 18.161 10.3668 18.161Z" fill="#6757C8"/>
</g>
<defs>
<clipPath id="clip0">
<rect width="38" height="38" fill="white"/>
</clipPath>
</defs>
</svg>
