<svg width="52" height="60" viewBox="0 0 52 60" fill="none" xmlns="http://www.w3.org/2000/svg">
<path fill-rule="evenodd" clip-rule="evenodd" d="M36.9803 0.0155921C34.8235 0.0137133 32.6935 0.488021 30.7462 1.40382C28.7989 2.31961 27.0835 3.65373 25.7255 5.30859C23.8437 3.00897 21.2861 1.34235 18.4052 0.538425C15.5242 -0.265499 12.4616 -0.167149 9.63961 0.819921C6.81759 1.80699 4.37503 3.63418 2.64857 6.04967C0.922106 8.46517 -0.00325761 11.35 8.61683e-06 14.3067V37.5959C8.61683e-06 39.2804 0.677596 40.896 1.88371 42.0871C3.08982 43.2783 4.72567 43.9475 6.43137 43.9475V14.3067C6.43137 12.201 7.27835 10.1816 8.786 8.69261C10.2936 7.20367 12.3384 6.36719 14.4706 6.36719C16.6027 6.36719 18.6475 7.20367 20.1551 8.69261C21.6628 10.1816 22.5098 12.201 22.5098 14.3067V32.8322C22.5098 33.6744 22.8486 34.4822 23.4516 35.0778C24.0547 35.6734 24.8726 36.008 25.7255 36.008C26.5783 36.008 27.3962 35.6734 27.9993 35.0778C28.6023 34.4822 28.9411 33.6744 28.9411 32.8322V14.3067C28.9411 12.201 29.7881 10.1816 31.2958 8.69261C32.8034 7.20367 34.8482 6.36719 36.9803 6.36719C39.1125 6.36719 41.1573 7.20367 42.6649 8.69261C44.1726 10.1816 45.0195 12.201 45.0195 14.3067V43.9475C46.7252 43.9475 48.3611 43.2783 49.5672 42.0871C50.7733 40.896 51.4509 39.2804 51.4509 37.5959V14.3067C51.4509 10.5164 49.9263 6.88145 47.2126 4.20136C44.4988 1.52126 40.8182 0.0155921 36.9803 0.0155921Z" fill="#1955A0"/>
<path fill-rule="evenodd" clip-rule="evenodd" d="M33.7642 10.6018V31.7738C33.7642 33.8795 32.9172 35.8989 31.4095 37.3879C29.9019 38.8768 27.8571 39.7133 25.725 39.7133C23.5928 39.7133 21.548 38.8768 20.0404 37.3879C18.5327 35.8989 17.6858 33.8795 17.6858 31.7738V10.6018C15.9801 10.6018 14.3442 11.271 13.1381 12.4621C11.932 13.6533 11.2544 15.2689 11.2544 16.9534V31.7738C11.2544 35.564 12.779 39.199 15.4927 41.8791C18.2065 44.5592 21.8871 46.0649 25.725 46.0649C29.5628 46.0649 33.2434 44.5592 35.9572 41.8791C38.671 39.199 40.1955 35.564 40.1955 31.7738V16.9534C40.1955 15.2689 39.5179 13.6533 38.3118 12.4621C37.1057 11.271 35.4699 10.6018 33.7642 10.6018Z" fill="#E61D4D"/>
<path d="M0.71875 59.9019V53.406H3.87811C4.67861 53.406 5.26914 53.5569 5.64971 53.8587C6.03027 54.1606 6.22056 54.5936 6.22056 55.1579C6.22056 55.5254 6.11229 55.8436 5.89576 56.1126C5.67923 56.3816 5.34788 56.549 4.9017 56.6146V56.6244C5.40037 56.69 5.7711 56.8639 6.01387 57.1461C6.26321 57.4216 6.38788 57.7563 6.38788 58.15C6.38788 58.7077 6.18775 59.1407 5.7875 59.4491C5.39381 59.751 4.80656 59.9019 4.02574 59.9019H0.71875ZM2.35256 56.0634H3.58284C4.1865 56.0634 4.48832 55.8272 4.48832 55.3548C4.48832 54.8823 4.1865 54.6461 3.58284 54.6461H2.35256V56.0634ZM2.35256 58.711H3.74031C4.35053 58.711 4.65564 58.4682 4.65564 57.9826C4.65564 57.5102 4.35053 57.274 3.74031 57.274H2.35256V58.711Z" fill="#1955A0"/>
<path d="M9.85818 59.9019V53.406H14.9171V54.715H11.551V56.0339H14.2281V57.2642H11.551V58.5929H15.045V59.9019H9.85818Z" fill="#1955A0"/>
<path d="M17.7995 59.9019L20.0829 53.406H22.1104L24.3839 59.9019H22.6419L22.199 58.4354H19.9549L19.5022 59.9019H17.7995ZM20.8014 55.7189L20.3092 57.2838H21.8446L21.3722 55.7288L21.0868 54.7052H21.0671L20.8014 55.7189Z" fill="#1955A0"/>
<path d="M32.9606 53.406V57.2543C32.9606 59.085 31.9928 60.0003 30.0571 60.0003C29.1057 60.0003 28.384 59.7739 27.8918 59.3212C27.3997 58.8619 27.1537 58.1729 27.1537 57.2543V53.406H28.8564V57.2838C28.8564 58.209 29.2566 58.6716 30.0571 58.6716C30.8642 58.6716 31.2677 58.209 31.2677 57.2838V53.406H32.9606Z" fill="#1955A0"/>
<path d="M42.143 53.406V54.715H40.0269V59.9019H38.3341V54.715H36.2081V53.406H42.143Z" fill="#1955A0"/>
<path d="M50.9985 53.406L48.7052 57.5299V59.9019H47.0124V57.5299L44.7191 53.406H46.4711L47.3864 55.1875L47.8687 56.2701L48.3608 55.1875L49.2761 53.406H50.9985Z" fill="#1955A0"/>
</svg>
