<svg xmlns="http://www.w3.org/2000/svg" viewBox="0 0 484.91 84.56"><defs><style>.cls-1,.cls-2{fill:#e2b138;}.cls-2{fill-rule:evenodd;}.cls-3{fill:none;stroke:#e2b138;stroke-miterlimit:10;}</style></defs><title>Cats step</title><g id="Слой_2" data-name="Слой 2"><g id="Слой_1-2" data-name="Слой 1"><path class="cls-1" d="M0,44.86A39.79,39.79,0,0,1,3.26,28.62a41.05,41.05,0,0,1,8.56-12.69A38.3,38.3,0,0,1,23.89,7.72,34.7,34.7,0,0,1,37.7,4.81a47.16,47.16,0,0,1,8.73.83,26.29,26.29,0,0,1,7.91,2.78,16.94,16.94,0,0,1,5.73,5.12,13.4,13.4,0,0,1,2.22,7.86,8.56,8.56,0,0,1-1,4,12.3,12.3,0,0,1-2.61,3.39,13.9,13.9,0,0,1-3.56,2.39,9.08,9.08,0,0,1-3.87.91,18.82,18.82,0,0,1-6.08-1,16,16,0,0,0-5-1,2.75,2.75,0,0,0-2,.56,3.61,3.61,0,0,0-.52,2.3v24a3.61,3.61,0,0,0,.52,2.3,2.7,2.7,0,0,0,2,.57,14.24,14.24,0,0,0,5-1.22,17.18,17.18,0,0,1,6.43-1.22,10.42,10.42,0,0,1,4.52,1,11.76,11.76,0,0,1,3.6,2.65A12.42,12.42,0,0,1,63,69.36a10.88,10.88,0,0,1-2.3,7,17.6,17.6,0,0,1-6,4.7,30.71,30.71,0,0,1-8.17,2.64,48.32,48.32,0,0,1-8.86.83,34.87,34.87,0,0,1-13.77-2.87,38.94,38.94,0,0,1-12.07-8.08,39.93,39.93,0,0,1-8.6-12.55A39.5,39.5,0,0,1,0,44.86"/><path class="cls-1" d="M422,83.26q-12.42,0-12.43-12V18.11q0-5.91,3.35-8.95t9.43-3h22.23a40.77,40.77,0,0,1,13.55,2.13,29.86,29.86,0,0,1,10.39,6,26.53,26.53,0,0,1,6.6,9.38,31.2,31.2,0,0,1,2.3,12.17,30.69,30.69,0,0,1-1.78,10.64,27.11,27.11,0,0,1-5,8.51,28,28,0,0,1-7.73,6.17,35.52,35.52,0,0,1-10,3.6V71q0,6.33-3.3,9.29a12.16,12.16,0,0,1-8.42,3Z"/><path class="cls-1" d="M392.47,29.75v.87h.78a13.35,13.35,0,0,1,9,2.91c2.29,1.93,3.43,4.76,3.43,8.46s-1.14,6.53-3.43,8.47a13.4,13.4,0,0,1-9,2.91h-.78v6.09h1.83a11.28,11.28,0,0,1,8.12,3.12c2.17,2.09,3.25,5,3.25,8.69A11.79,11.79,0,0,1,402.42,80a11,11,0,0,1-8.12,3.26H362a12.47,12.47,0,0,1-8.82-3q-3.26-3-3.25-9V18a10.67,10.67,0,0,1,3.82-8.77q3.82-3.13,10.68-3.13h28.84a13.54,13.54,0,0,1,9,2.86q3.43,2.87,3.43,9c0,3.77-1.11,6.67-3.34,8.73s-5.25,3.09-9.08,3.09Z"/><path class="cls-1" d="M327.67,83.26H307.52a9.49,9.49,0,0,1-3.44-.74,11.57,11.57,0,0,1-3.52-2.26,12.46,12.46,0,0,1-2.73-3.74,11.69,11.69,0,0,1-1.09-5.25V29.83a11,11,0,0,1-7.68-3c-2.18-2-3.26-4.91-3.26-8.73s1.08-6.78,3.26-8.86a10.81,10.81,0,0,1,7.77-3.13h41.52a10.85,10.85,0,0,1,7.78,3.13q3.25,3.12,3.26,8.86t-3.26,8.73a11,11,0,0,1-7.69,3V71.27a11.69,11.69,0,0,1-1.09,5.25,12.46,12.46,0,0,1-2.73,3.74,11.34,11.34,0,0,1-3.52,2.26,9.48,9.48,0,0,1-3.43.74"/><path class="cls-1" d="M257.13,84a66.62,66.62,0,0,1-11.6-1,41.47,41.47,0,0,1-10.12-3,20.71,20.71,0,0,1-7.12-5.17,11.48,11.48,0,0,1-1.65-12.16,10.72,10.72,0,0,1,2.61-3.43,11.27,11.27,0,0,1,3.38-2,9.29,9.29,0,0,1,3.31-.7,16.9,16.9,0,0,1,3.9.44L229.25,38.87a32.11,32.11,0,0,1-2.74-6.08,22.14,22.14,0,0,1-.91-6.69,16.89,16.89,0,0,1,2.65-9.56A20.87,20.87,0,0,1,235.2,10a33.42,33.42,0,0,1,9.86-3.74,53.1,53.1,0,0,1,11.38-1.21A52.53,52.53,0,0,1,267.38,6.2a40.29,40.29,0,0,1,9.43,3.17,21.23,21.23,0,0,1,6.6,4.87,9.31,9.31,0,0,1,2.47,6.3,9.75,9.75,0,0,1-2.82,7.34,8.68,8.68,0,0,1-6.12,2.74,14.29,14.29,0,0,1-2.61-.22l-2-.4v.09l12.42,21.37a22.07,22.07,0,0,1,2.4,5.56,24.17,24.17,0,0,1,.73,6.17,18,18,0,0,1-2.39,9.51A18.93,18.93,0,0,1,279,79.17a30.77,30.77,0,0,1-9.73,3.7A59.28,59.28,0,0,1,257.13,84"/><path class="cls-1" d="M174.43,83.26H154.28a9.44,9.44,0,0,1-3.43-.74,11.34,11.34,0,0,1-3.52-2.26,12.66,12.66,0,0,1-2.74-3.74,11.82,11.82,0,0,1-1.08-5.25V29.83a11,11,0,0,1-7.69-3q-3.25-3-3.26-8.73t3.26-8.86a10.81,10.81,0,0,1,7.77-3.13h41.53a10.81,10.81,0,0,1,7.77,3.13q3.26,3.12,3.26,8.86t-3.26,8.73a11,11,0,0,1-7.69,3V71.27a11.82,11.82,0,0,1-1.08,5.25,12.66,12.66,0,0,1-2.74,3.74,11.34,11.34,0,0,1-3.52,2.26,9.4,9.4,0,0,1-3.43.74"/><path class="cls-1" d="M37.61,56.85l.53,2.3c.11.5,1,.57,2,.57a14.19,14.19,0,0,0,5-1.22,17.18,17.18,0,0,1,6.43-1.22,10.42,10.42,0,0,1,4.52,1,11.76,11.76,0,0,1,3.6,2.65A12.42,12.42,0,0,1,63,69.36a10.88,10.88,0,0,1-2.3,7,17.6,17.6,0,0,1-6,4.7,30.6,30.6,0,0,1-8.17,2.64,48.32,48.32,0,0,1-8.86.83,34.87,34.87,0,0,1-13.77-2.87c-4.49-1.91-9.26-4-12.07-8.08L3.26,61.06Z"/><path class="cls-1" d="M137.34,68.88a48.51,48.51,0,0,0-1.91-6.82l-17.2-46.91C117,11.62,115.54,9.23,114,8s-3.85-1.86-6.86-1.86H94.86a25.25,25.25,0,0,0-4.08.3,9.42,9.42,0,0,0-3.35,1.22,10.34,10.34,0,0,0-2.82,2.6,21,21,0,0,0-2.52,4.56L61.76,62.93a43.58,43.58,0,0,0-2.26,6.73,22.11,22.11,0,0,0-.69,4.48q0,5,3.47,7.29a14.49,14.49,0,0,0,8.08,2.26c3,0,9.86-1.64,12.67-2.84-.12-.72-.23-1.45-.31-2.19a13.88,13.88,0,0,0-.42-2.91A49.22,49.22,0,0,1,82.58,67c.29-2.12,1.12-4,1.58-6,0-.15-.19-.15-.3-.3-.58-.16-.83-.69-1.31-1A21.17,21.17,0,0,0,81,66.73c-.07.32-.2.17-.16-.07a24.6,24.6,0,0,1,1.45-7.18,11.18,11.18,0,0,0-.6-1.12,8.81,8.81,0,0,0-2.78,4.88c-.13.66-.28.61-.14,0a8.24,8.24,0,0,1,2.89-5,10.2,10.2,0,0,1-.7-2,4.21,4.21,0,0,0-2.86,2.68c-.1.21-.18.21-.12,0A4.46,4.46,0,0,1,80.88,56,11.49,11.49,0,0,1,81,50.87c.87-1.9,2.13-3.91,1.92-6.39a22.65,22.65,0,0,0-2-6.1c-.52-1.34-1-2.82.38-2.53A18.92,18.92,0,0,1,86.56,40c.89,1.36,2.67,1.5,4.13,1.14,1-.9,2.23-.22,3.47-.24,2.43-.39,3.28-3,4.26-4.91.67-1.07,1.37-2.32,2.69-2.69.92-.3,1.47.32,2.43,1.59a11.27,11.27,0,0,1,1.19,2.38c.34,2.52,1.12,4.94.82,7.46.82,1.53,2.77,3,2,5.09a3.58,3.58,0,0,1,.77,2.72c-.73.87-.11,2.4-1,3.11-.18.54.3.73.48,1a17.92,17.92,0,0,1,1.52,6c.39,1.06.22,2.39,1,3.24,1.82.87,3.91,1.34,5.76,2.4,5.18,2.6,9.26,7.57,11.91,12.46.48.87.93,1.71,1.36,2.53a8.31,8.31,0,0,0,6.22-2.84A9.28,9.28,0,0,0,138,74.14a28.92,28.92,0,0,0-.69-5.26"/><path class="cls-2" d="M82.57,62.08c9.17,3.17,19.07,1.81,28.61-3.84.21,2,.73,3.24.94,5.24-11.51,5-20.86,5.07-29.49,2.39-.21-2,.14-1.79-.06-3.79"/><path class="cls-3" d="M478.52.5a5.9,5.9,0,1,1-5.9,5.9A5.9,5.9,0,0,1,478.52.5Z"/><path class="cls-1" d="M476,9.59V3.22h2.7a4.79,4.79,0,0,1,1.49.17,1.52,1.52,0,0,1,.74.61,1.91,1.91,0,0,1,.27,1,1.75,1.75,0,0,1-.41,1.18,2,2,0,0,1-1.26.59,3.15,3.15,0,0,1,.68.53,7.38,7.38,0,0,1,.73,1l.78,1.25h-1.53l-.93-1.39a8.38,8.38,0,0,0-.68-.93,1,1,0,0,0-.39-.27,2,2,0,0,0-.64-.07h-.26V9.59Zm1.29-3.68h1a4.42,4.42,0,0,0,1.15-.08.73.73,0,0,0,.36-.26.82.82,0,0,0,.13-.48.79.79,0,0,0-.17-.52.82.82,0,0,0-.48-.25c-.11,0-.42,0-.94,0h-1Z"/></g></g></svg>