<svg xmlns="http://www.w3.org/2000/svg" viewBox="0 0 309.26 154.9"><defs><style>.cls-1{fill:#262424;}</style></defs><title>Professional light_logo</title><g id="Слой_2" data-name="Слой 2"><g id="Layer_4" data-name="Layer 4"><path class="cls-1" d="M23.43,111.21q-3.15-8.65,2.81-10.83t9.12,6.51l12.5,34.34L58,137.55q8.48-3.09,10.52,2.53t-6.43,8.7l-13.93,5.07q-4.52,1.65-6.89.72c-1.58-.62-2.92-2.44-4-5.48Z"/><path class="cls-1" d="M54.33,94.23a7.09,7.09,0,0,1,.21-5.57,6.94,6.94,0,0,1,4.05-3.72,6.71,6.71,0,0,1,5.43.28,7.57,7.57,0,0,1,3.53,9.69,6.69,6.69,0,0,1-4,3.69,7,7,0,0,1-5.52-.19A7.05,7.05,0,0,1,54.33,94.23Zm28,38q3.15,8.67-2.59,10.77t-9-6.56l-8.7-23.91q-3.14-8.6,2.68-10.72t8.88,6.51Z"/><path class="cls-1" d="M116.9,123.17l-.28.1a12.37,12.37,0,0,1-8.24,9.32,15.16,15.16,0,0,1-7,.81,19,19,0,0,1-10.74-5.15,25.84,25.84,0,0,1-6.55-10.18,24.07,24.07,0,0,1-.38-16.24A17,17,0,0,1,94.42,90.45a12.21,12.21,0,0,1,10.89.86c.28-2.94,1.53-4.8,3.73-5.6q5.82-2.13,8.95,6.47L126.67,116a79.66,79.66,0,0,1,2.94,9.65q1.86,8.22-2.22,14.45-3.78,5.7-11.89,8.65t-13.48,2q-5.44-1-6.69-4.42a5.53,5.53,0,0,1,0-4.25,5.1,5.1,0,0,1,3.1-2.79q1.29-.48,5.67-.28a20.19,20.19,0,0,0,7.9-1.09q4.44-1.62,5.76-5.17a11.61,11.61,0,0,0-.35-8.1Zm-5.22-14.35-.78-2.14q-3.06-8.4-10.81-5.58a7,7,0,0,0-4.59,5.26,12.19,12.19,0,0,0,.55,7.31,13,13,0,0,0,4.26,6.13,7,7,0,0,0,7,1,7.37,7.37,0,0,0,4.89-4.87A11.18,11.18,0,0,0,111.68,108.82Z"/><path class="cls-1" d="M135.81,80q2-4.71,8.6-7.12,14.1-5.13,19.72,10.31l6.21,17.07q3.16,8.67-2.65,10.79t-9-6.54L153.83,91q-1.61-4.39-3.27-5.87-2.33-2.16-6.18-.75-6.13,2.23-3,11l5,13.58q3.15,8.67-2.7,10.79t-9.08-6.51L119.77,72.5q-3.17-8.67,2.76-10.83t9,6.54Z"/><path class="cls-1" d="M172.75,75.53q-7,2.53-8.84-2.61-1.8-4.94,5-7.83a73.32,73.32,0,0,1-2.87-8.78q-.83-5.61,3.62-7.23t7.36,3.23a74.79,74.79,0,0,1,3.45,8.57q8.4-3.06,10.32,2.24,1.88,5.15-6.52,8.2l7.65,21q3.15,8.67-2.59,10.76t-9-6.56Z"/><path class="cls-1" d="M307.28,70.18c-2.07,2.2-4.89,2.9-6.29,1.57s-.88-4.18,1.19-6.37,4.89-2.9,6.3-1.57S309.35,68,307.28,70.18Z"/><path class="cls-1" d="M304.71,81.94c-2.7,1.34-5.59,1-6.44-.71s.63-4.23,3.33-5.57,5.58-1,6.44.72S307.41,80.6,304.71,81.94Z"/><path class="cls-1" d="M296.14,59.16c-1.9,2.34-2.23,5.22-.73,6.44s4.26.32,6.16-2,2.23-5.23.73-6.45S298.05,56.82,296.14,59.16Z"/><path class="cls-1" d="M285,61.5c-1,2.86-.29,5.67,1.54,6.3s4.11-1.18,5.08-4,.29-5.67-1.54-6.3S286,58.65,285,61.5Z"/><path class="cls-1" d="M285,68.62s4.24,1.39,6.75.64c2.3-.71,6.76-.18,5.75,4.69-1.11,4-1.3,5.82-.49,9,0,1.62.1,5.8-4.56,6.15-1.6-.34-3.62-1.87-4.82-5.67-1.7-3.23-2.86-4.81-5.51-5.45-1.72-.78-4.94-2-3.31-6.93C280.55,69.12,281.84,67.9,285,68.62Z"/><path class="cls-1" d="M296.26,15.8c-1.74,4.16-5.31,6.63-8,5.52s-3.43-5.39-1.7-9.56,5.31-6.63,8-5.52S298,11.63,296.26,15.8Z"/><path class="cls-1" d="M298.88,33.6c-3.08,3.3-7.28,4.38-9.4,2.41s-1.35-6.24,1.72-9.55,7.28-4.38,9.4-2.41S301.94,30.3,298.88,33.6Z"/><path class="cls-1" d="M274.84,6.26c-1.43,4.28-.37,8.49,2.38,9.4s6.13-1.8,7.56-6.08.36-8.48-2.39-9.4S276.27,2,274.84,6.26Z"/><path class="cls-1" d="M260.49,15.43c.14,4.51,2.6,8.09,5.49,8s5.12-3.82,5-8.33-2.61-8.08-5.5-8S260.34,10.93,260.49,15.43Z"/><path class="cls-1" d="M264.19,25.41s6.68-.29,9.78-2.68c2.85-2.2,9.37-3.82,10.54,3.53.58,6.24,1.25,8.83,4.05,12.79.84,2.27,3.21,8.07-3.13,11-2.42.36-6.05-.71-9.73-5.38-4.09-3.62-6.56-5.22-10.61-4.71-2.8-.18-7.93-.13-8.29-7.95C258.29,28.45,259.45,26.06,264.19,25.41Z"/><path class="cls-1" d="M205,53.8c4.54,3.87,10.23,4.64,12.71,1.73s.82-8.41-3.72-12.27-10.23-4.65-12.71-1.74S200.42,49.93,205,53.8Z"/><path class="cls-1" d="M212.54,76.36c5.59,2,11.2.8,12.52-2.79s-2.15-8.16-7.75-10.22-11.2-.81-12.52,2.79S206.94,74.3,212.54,76.36Z"/><path class="cls-1" d="M224.5,29.73c4.24,4.19,5.51,9.79,2.83,12.51S219,43.78,214.77,39.6s-5.51-9.79-2.82-12.51S220.25,25.55,224.5,29.73Z"/><path class="cls-1" d="M246.91,32c2.53,5.4,1.78,11.09-1.69,12.71s-8.32-1.43-10.85-6.83-1.78-11.09,1.68-12.71S244.38,26.55,246.91,32Z"/><path class="cls-1" d="M248.52,45.93s-8.06,3.65-13.14,2.7c-4.68-.89-13.33,1.1-10.3,10.47,3,7.7,3.8,11.16,2.88,17.5.37,3.19,1,11.44,10.29,11.12,3.07-1,6.71-4.46,8.25-12.18,2.65-6.71,4.61-10.07,9.68-11.9,3.2-1.89,9.28-4.9,5-14.34C257.29,46,254.5,43.85,248.52,45.93Z"/><path class="cls-1" d="M10.06,97.6c-1.76.62-3.09-.32-4-2.83l-5.66-16a4.33,4.33,0,0,1-.22-3.17,4.14,4.14,0,0,1,2.57-1.85L7.56,72a9.4,9.4,0,0,1,6.83-.15,7.88,7.88,0,0,1,4.46,5,8.1,8.1,0,0,1-.11,6.59,8.66,8.66,0,0,1-5.19,4.16L10,89l1.4,4Q12.7,96.66,10.06,97.6ZM8.28,84.14l2.3-.81q3.63-1.27,2.54-4.37t-4.7-1.74L6.13,78Z"/><path class="cls-1" d="M25.58,87.88,21.92,77.51q-1.32-3.74,1.3-4.65a2.93,2.93,0,0,1,3,.75,5,5,0,0,1,2.88-2.91,2.85,2.85,0,0,1,2.13,0,2.53,2.53,0,0,1,1.41,1.57,2.32,2.32,0,0,1-.61,2.4l-2.22,1.89a3.29,3.29,0,0,0-1.35,2,5.89,5.89,0,0,0,.44,2.07l1.89,5.35q1.32,3.75-1.27,4.67C27.79,91.34,26.47,90.4,25.58,87.88Z"/><path class="cls-1" d="M35.25,78.64a10,10,0,0,1,.12-7.44,8.63,8.63,0,0,1,5.35-4.88,8.59,8.59,0,0,1,7.24.42,10.88,10.88,0,0,1,4.67,13.11,8.71,8.71,0,0,1-5.4,4.91,8.69,8.69,0,0,1-7.3-.47A9.83,9.83,0,0,1,35.25,78.64Zm5.31-1.91a5.39,5.39,0,0,0,1.88,2.67,3.08,3.08,0,0,0,3.07.49,3.13,3.13,0,0,0,2.12-2.32,5.54,5.54,0,0,0-.25-3.25,5.38,5.38,0,0,0-1.86-2.63,3.1,3.1,0,0,0-3.08-.5,3.19,3.19,0,0,0-2.13,2.3A5.65,5.65,0,0,0,40.56,76.73Z"/><path class="cls-1" d="M58.58,60.88c2.68-.94,4.28-.65,4.82.88a2,2,0,0,1-.76,2.5,10.11,10.11,0,0,1-2.59,1.2l3.22,9.13q1.33,3.76-1.22,4.66T58.14,76.4l-3.22-9.13q-3.09,1.1-3.88-1.14t2.28-3.39L52.69,61a7,7,0,0,1-.24-4.76,5.22,5.22,0,0,1,3.48-3.13q3.38-1.18,4.29,1.39c.49,1.4,0,2.38-1.59,2.92-.51.18-.78.43-.81.74A10.26,10.26,0,0,0,58.58,60.88Z"/><path class="cls-1" d="M71.6,67.43a3.27,3.27,0,0,0,2.05,1.85,4.57,4.57,0,0,0,2.93-.14,8.28,8.28,0,0,0,2.85-2,9.26,9.26,0,0,1,2-1.66,1.89,1.89,0,0,1,2.74,1.29,2.7,2.7,0,0,1,0,1.73,6.61,6.61,0,0,1-2.5,3.28,12.72,12.72,0,0,1-3.69,2,9,9,0,0,1-7.3-.38,9.44,9.44,0,0,1-4.83-5.58A10,10,0,0,1,66,60.5a9.06,9.06,0,0,1,8.93-5.41,9.42,9.42,0,0,1,4.67,1.76,8,8,0,0,1,2.94,3.87A2.39,2.39,0,0,1,82.25,63a3.56,3.56,0,0,1-1.89,1.34Zm-1.26-3.36,6.79-2.39a3.4,3.4,0,0,0-1.81-1.84,3.71,3.71,0,0,0-4.58,1.6A4.09,4.09,0,0,0,70.34,64.07Z"/><path class="cls-1" d="M93.41,68.43c-2.87,1-5.11.92-6.72-.27a2.72,2.72,0,0,1-1-1.3q-.81-2.33,1.6-3.18a4.49,4.49,0,0,1,2.23.07,4.84,4.84,0,0,0,2.64-.07c1-.34,1.31-.86,1.07-1.56-.16-.44-1-.73-2.56-.85a23.36,23.36,0,0,1-4.38-.64,4.72,4.72,0,0,1-3.3-3,5.27,5.27,0,0,1,.52-4.8,7.4,7.4,0,0,1,3.95-3,9.8,9.8,0,0,1,3.27-.58,5.05,5.05,0,0,1,3.13.86,2.55,2.55,0,0,1,.92,1.18,2.24,2.24,0,0,1-.06,1.76,2.14,2.14,0,0,1-1.3,1.16,5.71,5.71,0,0,1-2.24.09,5.74,5.74,0,0,0-2.32.12c-.79.28-1.07.71-.86,1.31s.62.71,1.36.73c1.64,0,2.81.11,3.53.19a10.17,10.17,0,0,1,3.36.93,4.37,4.37,0,0,1,2.07,2.53,5.48,5.48,0,0,1-.67,5.11A8.16,8.16,0,0,1,93.41,68.43Z"/><path class="cls-1" d="M107.65,63.41q-4.31,1.52-6.72-.28a2.7,2.7,0,0,1-1-1.29q-.81-2.34,1.6-3.19a4.52,4.52,0,0,1,2.23.08,4.83,4.83,0,0,0,2.64-.08c1-.33,1.32-.85,1.07-1.55-.16-.45-1-.73-2.56-.86a22.53,22.53,0,0,1-4.38-.64,4.7,4.7,0,0,1-3.3-3,5.29,5.29,0,0,1,.52-4.81,7.44,7.44,0,0,1,4-3,10.06,10.06,0,0,1,3.27-.58,5,5,0,0,1,3.13.87,2.5,2.5,0,0,1,.92,1.18A2.24,2.24,0,0,1,109,48a2.13,2.13,0,0,1-1.3,1.15,5.73,5.73,0,0,1-2.24.09,5.89,5.89,0,0,0-2.32.13c-.79.27-1.07.71-.86,1.3s.62.72,1.36.74c1.64,0,2.81.11,3.53.19a10,10,0,0,1,3.36.92,4.4,4.4,0,0,1,2.07,2.53,5.48,5.48,0,0,1-.67,5.11A8.23,8.23,0,0,1,107.65,63.41Z"/><path class="cls-1" d="M108.77,37.76a3,3,0,0,1,.14-2.42,3.11,3.11,0,0,1,1.81-1.6,3,3,0,0,1,2.39.12,3.23,3.23,0,0,1,1.49,4.21,3,3,0,0,1-1.79,1.59,3.1,3.1,0,0,1-2.43-.09A3,3,0,0,1,108.77,37.76Zm12.07,16.51c.88,2.51.48,4.07-1.22,4.67s-3-.35-3.91-2.86l-3.66-10.37q-1.32-3.74,1.26-4.65c1.7-.59,3,.35,3.86,2.84Z"/><path class="cls-1" d="M121.75,48.12a9.9,9.9,0,0,1,.11-7.44,9.34,9.34,0,0,1,12.6-4.46A10.06,10.06,0,0,1,139.17,42a9.94,9.94,0,0,1,0,7.36,9.35,9.35,0,0,1-12.69,4.44A9.76,9.76,0,0,1,121.75,48.12Zm5.31-1.91a5.37,5.37,0,0,0,1.87,2.67,3.08,3.08,0,0,0,3.07.49,3.12,3.12,0,0,0,2.12-2.32,5.46,5.46,0,0,0-.25-3.25A5.39,5.39,0,0,0,132,41.16a3.31,3.31,0,0,0-5.2,1.81A5.49,5.49,0,0,0,127.06,46.21Z"/><path class="cls-1" d="M143.58,46.24l-3.66-10.37q-1.32-3.73,1.3-4.65a2.93,2.93,0,0,1,3,.75,6.21,6.21,0,0,1,3.95-3.22q6.28-2.2,8.64,4.49l2.62,7.41c.88,2.51.47,4.07-1.25,4.67s-3-.34-3.91-2.84l-2.06-5.83a6.27,6.27,0,0,0-1.4-2.56,2.51,2.51,0,0,0-2.71-.33c-1.82.64-2.28,2.23-1.39,4.75l2.08,5.9q1.32,3.75-1.27,4.67C145.79,49.7,144.47,48.76,143.58,46.24Z"/><path class="cls-1" d="M174.73,37.45a5.64,5.64,0,0,1-3.65,3.47,7.4,7.4,0,0,1-6.75-.85,10.35,10.35,0,0,1-4.26-5.48,10.27,10.27,0,0,1,0-7,7.58,7.58,0,0,1,4.82-4.92,5.43,5.43,0,0,1,4.79.39,2.88,2.88,0,0,1,1.88-2.49q2.55-.9,3.87,2.83L179,33.73q1.34,3.77-1.22,4.67A2.73,2.73,0,0,1,174.73,37.45Zm-9.36-4.8a5.36,5.36,0,0,0,1.8,2.59,3.08,3.08,0,0,0,3,.44,3,3,0,0,0,2-2.22,5.44,5.44,0,0,0-.25-3.13,5.22,5.22,0,0,0-1.76-2.57,3,3,0,0,0-3-.42,3.08,3.08,0,0,0-2.05,2.19A5.11,5.11,0,0,0,165.37,32.65Z"/><path class="cls-1" d="M176.5,14.76c-.88-2.51-.47-4.07,1.25-4.68s3,.36,3.88,2.87l6.24,17.67q1.32,3.77-1.23,4.66t-3.9-2.85Z"/></g></g></svg>