<svg xmlns="http://www.w3.org/2000/svg" viewBox="0 0 120.75 120.75"><defs><style>.cls-1,.cls-6{fill:#eeb500;}.cls-1,.cls-3{stroke:#262424;}.cls-1,.cls-2,.cls-3{stroke-miterlimit:10;}.cls-2,.cls-3{fill:#fff;}.cls-2{stroke:#eeb500;}.cls-4{fill:#262424;}.cls-5{fill:#e39d3d;}.cls-7{fill:#811f22;}.cls-8{fill:#778070;}</style></defs><title>superlight</title><g id="Слой_2" data-name="Слой 2"><g id="Layer_4" data-name="Layer 4"><path class="cls-1" d="M.5,60.37a59.88,59.88,0,1,1,59.87,59.88A59.86,59.86,0,0,1,.5,60.37Z"/><path class="cls-2" d="M19.28,60.37a41.1,41.1,0,1,1,41.09,41.1A41.09,41.09,0,0,1,19.28,60.37Z"/><path class="cls-3" d="M22.11,60.37A38.27,38.27,0,1,1,60.37,98.64,38.26,38.26,0,0,1,22.11,60.37Z"/><path class="cls-4" d="M42.34,100.48a5,5,0,0,1,3,3.06A6.52,6.52,0,0,1,42.11,111a4.94,4.94,0,0,1-4.28,0,5.33,5.33,0,0,1-1.42-.86,2.75,2.75,0,0,1-1-1.33,1,1,0,0,1,.63-1.28,1,1,0,0,1,.82,0,2.68,2.68,0,0,1,.81.58,3.26,3.26,0,0,0,1,.69,2.33,2.33,0,0,0,2.33-.19,4.13,4.13,0,0,0,1.5-1.92,3.65,3.65,0,0,0,.26-2.37,2.48,2.48,0,0,0-1.54-1.73,4.24,4.24,0,0,0-1.34-.27,3.88,3.88,0,0,1-1-.13.93.93,0,0,1-.52-.59,1.12,1.12,0,0,1,0-.81,1.08,1.08,0,0,1,.49-.55C39.75,99.8,40.89,99.86,42.34,100.48Z"/><path class="cls-4" d="M37.09,95.42a1,1,0,0,1,.23,1.6,1.61,1.61,0,0,1-.53.51l-1.57,1-1.84,8.05a1.76,1.76,0,0,1-.29.66,1.25,1.25,0,0,1-.77.55,1.11,1.11,0,0,1-.91-.21c-.39-.27-.49-.78-.32-1.54l1.27-5.58,0,0-4.59,3.15a2.93,2.93,0,0,1-.81.43,1.13,1.13,0,0,1-1.16-1.77,2.44,2.44,0,0,1,.63-.61l9.11-6.12a2.33,2.33,0,0,1,.79-.37A1.14,1.14,0,0,1,37.09,95.42Z"/><path class="cls-4" d="M22.59,97.57l5.27-4.76c.88-.79,1.59-.88,2.15-.26s.39,1.32-.48,2.11l-5.59,5a1.54,1.54,0,0,1-2.46-.09l-4.12-4.56a1.53,1.53,0,0,1,.16-2.45l5.6-5c.87-.79,1.59-.88,2.14-.26s.4,1.31-.47,2.1l-5.27,4.76Z"/><path class="cls-4" d="M11.59,86.21c-.59-1-.54-1.74.14-2.12s1.29-.06,1.88,1l1,1.77,1.69-1-.87-1.53c-.58-1-.54-1.73.13-2.11s1.28,0,1.87,1l.87,1.52,1.81-1-1.05-1.84c-.58-1-.54-1.73.12-2.1s1.29-.06,1.88,1l1.44,2.53a2.06,2.06,0,0,1,.37,1.3c-.07.33-.37.64-.91,1l-6.62,3.77a1.93,1.93,0,0,1-1.37.34c-.35-.08-.69-.41-1-1Z"/><path class="cls-4" d="M19.31,76.69c.27.78-.16,1.36-1.28,1.74l-7.16,2.39a2,2,0,0,1-1.41.08,1.86,1.86,0,0,1-.8-1.16L8,77.61a4.21,4.21,0,0,1,0-3,3.52,3.52,0,0,1,2.28-2,3.57,3.57,0,0,1,2.92.1,3.79,3.79,0,0,1,1.81,2.33l.54,1.6,1.77-.6C18.36,75.69,19.05,75.9,19.31,76.69Zm-6,.68-.34-1c-.37-1.08-1-1.47-1.93-1.16s-1.17,1-.81,2.07l.35,1Z"/><path class="cls-4" d="M7.28,62.79l.23,2.66c0,.37.27.53.72.5l6.09-.54a2,2,0,0,1,2.4,2c.11,1.31-.21,2-1,2.07a1,1,0,0,1-.94-.29,1.69,1.69,0,0,1-.22-.78,1.11,1.11,0,0,0-.22-.65,1,1,0,0,0-.67-.09l-5.27.46a3.21,3.21,0,0,1-2.28-.39,2.91,2.91,0,0,1-.83-2.11L5,61.74c-.07-.82.48-1.29,1.65-1.39l7.65-.67c1.17-.1,1.79.26,1.86,1.09a1,1,0,0,1-.43,1.09,2.84,2.84,0,0,1-1.22.3Z"/><path class="cls-4" d="M5.85,51.71C6,50.54,6.47,50,7.24,50.1s1.07.73.92,1.9L7.9,54l1.94.24.22-1.74c.15-1.17.6-1.7,1.36-1.61s1.07.73.92,1.9l-.23,1.75,2.07.26.27-2.1c.15-1.17.6-1.71,1.36-1.61s1.07.73.92,1.9l-.37,2.89a2.1,2.1,0,0,1-.49,1.27,1.63,1.63,0,0,1-1.29.21L7,56.42a2,2,0,0,1-1.31-.54,1.89,1.89,0,0,1-.21-1.39Z"/><path class="cls-4" d="M15.74,49.39,8.53,47.16a2,2,0,0,1-1.19-.76,1.8,1.8,0,0,1,0-1.41l.83-2.68c.35-1.12.89-1.57,1.64-1.34s.93.9.58,2l-.61,2L16.48,47q1.68.52,1.32,1.71C17.55,49.52,16.87,49.74,15.74,49.39Z"/><path class="cls-4" d="M18.15,42,11.4,38.38c-1-.56-1.36-1.21-1-1.94s1.11-.81,2.15-.25l2.1,1.13L13.31,33a2.32,2.32,0,0,1-.13-1.62,1.2,1.2,0,0,1,.71-.59,1.08,1.08,0,0,1,.9.06,1.27,1.27,0,0,1,.51.68s.09.29.25.85l1,3.39,4.9-1.15a2,2,0,0,1,1.37,0,1.06,1.06,0,0,1,.54.69,1.09,1.09,0,0,1-.07.87,2,2,0,0,1-1.4.78L17,38.05l.11.55,2.27,1.22c1,.56,1.35,1.2,1,1.94S19.19,42.57,18.15,42Z"/><path class="cls-4" d="M24,24.67,25.45,32a1.77,1.77,0,0,1-.35,1.62c-.5.56-1.11.5-1.85-.16l-5.92-5.31c-.87-.79-1-1.49-.48-2.11s1.27-.53,2.15.26l3.81,3.42-1.45-7.49a1.7,1.7,0,0,1,.28-1.52c.51-.58,1.19-.49,2,.26l5.77,5.18c.88.79,1,1.49.49,2.11s-1.27.53-2.15-.25Z"/><path class="cls-4" d="M29.81,13.63a2.9,2.9,0,0,1-1.84.54,1.58,1.58,0,0,1-1.26-.65.73.73,0,0,1,.19-1.15,1,1,0,0,1,.93,0,1.18,1.18,0,0,0,1.61-1.06.93.93,0,0,1,.36-.84.74.74,0,0,1,1.15.28,1.54,1.54,0,0,1,0,1.62A3.37,3.37,0,0,1,29.81,13.63Zm4.63,2.88L33.93,24a1.81,1.81,0,0,1-.75,1.48c-.63.41-1.21.2-1.75-.63l-4.36-6.65c-.65-1-.62-1.71.07-2.16s1.36-.19,2,.8L32,21.11l.52-7.62a1.66,1.66,0,0,1,.66-1.4c.64-.42,1.27-.16,1.88.77l4.26,6.49c.64,1,.62,1.71-.08,2.16s-1.36.19-2-.79Z"/><path class="cls-4" d="M60.55,10.37a2.14,2.14,0,0,1,.72-1.54A2.26,2.26,0,0,1,64.43,9a2.13,2.13,0,0,1,.57,1.6,2.17,2.17,0,0,1-.73,1.55A2.21,2.21,0,0,1,61.12,12,2.16,2.16,0,0,1,60.55,10.37Z"/><path class="cls-4" d="M91.85,24.37a3.17,3.17,0,0,1-2.6,1.39,4.45,4.45,0,0,1-2.85-1,6,6,0,0,1-1.24-1.22A2.79,2.79,0,0,1,84.48,22a1,1,0,0,1,.92-1.09,1.33,1.33,0,0,1,.85.28,5.42,5.42,0,0,1,.77.88,5.74,5.74,0,0,0,1,1.08,1.3,1.3,0,0,0,.87.28.94.94,0,0,0,.75-.42,1,1,0,0,0,.15-1A6.79,6.79,0,0,0,89,20.71a6.09,6.09,0,0,1-1.1-2,2.5,2.5,0,0,1,.48-2.18,3,3,0,0,1,2.43-1.31,4.21,4.21,0,0,1,2.69.91A4.29,4.29,0,0,1,95,17.74a1.33,1.33,0,0,1,0,1.35,1,1,0,0,1-1.51.17,3.26,3.26,0,0,1-.63-.7,3.27,3.27,0,0,0-.67-.73,1.47,1.47,0,0,0-.77-.32.87.87,0,0,0-.89.8,1.77,1.77,0,0,0,.37.89l.59.81a5.63,5.63,0,0,1,1,2.14A2.77,2.77,0,0,1,91.85,24.37Z"/><path class="cls-4" d="M94.52,24.75l3.35-2.88c.89-.77,1.61-.84,2.15-.21s.37,1.32-.53,2.09l-3.13,2.7C94.9,27.72,94.64,28.9,95.6,30s2.18,1,3.64-.23l3.13-2.7c.9-.77,1.61-.84,2.16-.21s.36,1.33-.53,2.1l-3.35,2.88a5.15,5.15,0,0,1-3.52,1.47,4.41,4.41,0,0,1-3.34-1.74A4.43,4.43,0,0,1,92.55,28,5.28,5.28,0,0,1,94.52,24.75Z"/><path class="cls-4" d="M98.44,38c-.39-.74,0-1.38,1-1.92l6.71-3.48a2,2,0,0,1,1.38-.29,1.85,1.85,0,0,1,1,1l1,2a4.18,4.18,0,0,1,.49,3,3.53,3.53,0,0,1-2,2.28,3.61,3.61,0,0,1-2.91.35,3.87,3.87,0,0,1-2.15-2l-.77-1.49-1.66.86C99.53,38.78,98.82,38.68,98.44,38Zm5.8-1.61.5,1c.52,1,1.22,1.29,2.08.85s1-1.16.48-2.18l-.5-.95Z"/><path class="cls-4" d="M113.8,46.46c.33,1.13.12,1.81-.63,2s-1.27-.25-1.6-1.38l-.57-2-1.88.55.5,1.68c.33,1.14.12,1.81-.61,2s-1.27-.24-1.6-1.37l-.49-1.69-2,.59.59,2c.33,1.13.13,1.8-.6,2s-1.27-.25-1.6-1.38l-.82-2.8a2.12,2.12,0,0,1-.06-1.35,1.64,1.64,0,0,1,1.1-.71l7.32-2.14a1.94,1.94,0,0,1,1.41,0,1.83,1.83,0,0,1,.75,1.19Z"/><path class="cls-4" d="M108.63,54.78,106,55c-1.18.1-1.8-.26-1.87-1.08s.47-1.3,1.64-1.4l7.52-.69a2,2,0,0,1,1.39.25,1.86,1.86,0,0,1,.51,1.31l.18,1.93a5,5,0,0,1-.51,3,3,3,0,0,1-2.52,1.49,2.89,2.89,0,0,1-2-.51,3.2,3.2,0,0,1-1.14-1.82l-2,2.16a2.38,2.38,0,0,1-1.35.86,1.15,1.15,0,0,1-.87-.26,1.23,1.23,0,0,1-.41-.82,1.9,1.9,0,0,1,.77-1.41Zm1.64-.15.1,1.15c.1,1.06.6,1.55,1.51,1.46s1.25-.63,1.16-1.67l-.11-1.18Z"/><path class="cls-4" d="M113.92,62.73q1.77.17,1.65,1.41c-.08.82-.7,1.18-1.88,1.07l-7-.63-.19,2.1c-.11,1.18-.54,1.73-1.3,1.66s-1.09-.69-1-1.87l.26-2.9a2.05,2.05,0,0,1,.44-1.28,1.61,1.61,0,0,1,1.28-.26Z"/><path class="cls-4" d="M104.83,71.78c-1.15-.26-1.63-.8-1.45-1.61s.85-1.08,2-.82l7.48,1.7c1.15.26,1.63.79,1.45,1.6s-.85,1.08-2,.82Z"/><path class="cls-4" d="M106.57,81.54l-.7,1.66a1.87,1.87,0,0,1-.84,1,1.58,1.58,0,0,1-1.29-.1,5.06,5.06,0,0,1-2.85-2.68,4.82,4.82,0,0,1,.1-3.88,4.7,4.7,0,0,1,3-2.83,5.88,5.88,0,0,1,4.16.29,5.72,5.72,0,0,1,3.18,2.9,5.2,5.2,0,0,1-.11,4.24,6.69,6.69,0,0,1-1.06,1.73,3.11,3.11,0,0,1-1.65,1.1,1.32,1.32,0,0,1-.82-.06,1.14,1.14,0,0,1-.62-.58.92.92,0,0,1,0-.81,3.45,3.45,0,0,1,.93-.9,3.81,3.81,0,0,0,1.16-1.44,2.39,2.39,0,0,0-.12-2.28,3.68,3.68,0,0,0-1.83-1.46,4.08,4.08,0,0,0-2.37-.33A2.33,2.33,0,0,0,103,78.64,2.15,2.15,0,0,0,103,80.3a2,2,0,0,0,1.19,1.15,8.67,8.67,0,0,1,.69-1.45,1,1,0,0,1,1.34-.48C106.88,79.81,107,80.49,106.57,81.54Z"/><path class="cls-4" d="M100.5,88l-2.22-1.69c-.94-.71-1.16-1.4-.65-2.06s1.22-.63,2.16.08l6.1,4.65c.94.71,1.15,1.4.65,2.06s-1.22.63-2.16-.08l-2-1.57-2.78,3.66,2,1.56c.94.71,1.16,1.4.65,2.06s-1.22.64-2.16-.08L94,91.94c-.94-.71-1.16-1.4-.65-2.06s1.22-.63,2.16.09l2.22,1.69Z"/><path class="cls-4" d="M95.68,99.72a10.72,10.72,0,0,1,1.32-1,1.08,1.08,0,0,1,1.48.16c.51.59.31,1.28-.6,2l-3.29,2.82c-.89.77-1.6.85-2.1.26a1.06,1.06,0,0,1,.07-1.48,9.52,9.52,0,0,1,1.23-1.15L89.25,96Q88.1,94.69,89,93.88t2.1.54Z"/><path class="cls-4" d="M69,109.63a2.14,2.14,0,0,1-.44,1.64,2.22,2.22,0,0,1-4-1.07,2.15,2.15,0,0,1,.45-1.66,2.12,2.12,0,0,1,1.49-.84,2.09,2.09,0,0,1,1.63.45A2.15,2.15,0,0,1,69,109.63Z"/><path d="M62.11,84.68a12.7,12.7,0,0,1-4.24-.57c-1.67-.42-3.34-.8-5-1.18-1.22-.28-2.44-.57-3.67-.8a33,33,0,0,0-5.77-.75,7.84,7.84,0,0,0-3.27.8,35.21,35.21,0,0,0-7.64,4.74s.08,0,0,0c-2.44-3.67-5.59-6.3-7.41-11.94.3,0,1.77-.86,2-.9a.43.43,0,0,0,.2-.06,18.38,18.38,0,0,1,2.84-1.92c1.73-1.15,3.49-2.28,5.24-3.4a40.71,40.71,0,0,1,6.12-3.33,10.46,10.46,0,0,1,5.8-.76,27,27,0,0,1,5.09,1.3c1.08.39,2.2.69,3.3,1a1.83,1.83,0,0,0,.47,0c2.41,0,4.83-.15,7.24-.09a17.42,17.42,0,0,1,5.88,1.07,4.52,4.52,0,0,1,2.08,1.38c.86,1.13.76,1.76-.53,2.52a9.56,9.56,0,0,1-3.65,1.07,47.59,47.59,0,0,1-6.43.32c-2.11,0-4.23.06-6.34.16a11.89,11.89,0,0,0-2.19.41c-.36.09-.39.29-.11.54a1.41,1.41,0,0,0,.66.32c.83.13,1.67.23,2.51.29,1.94.14,3.88.23,5.82.38,1.24.1,2.48.23,3.71.41.76.1,1.5.32,2.25.47a1.21,1.21,0,0,0,.5,0,18.43,18.43,0,0,1,6-.41c.57,0,1.14.17,1.72.22a1,1,0,0,0,.59-.12A18.26,18.26,0,0,1,81,73.82a2.86,2.86,0,0,1,.58-.06,6,6,0,0,0,2.25-.91,21.32,21.32,0,0,1,4.31-1.62,5,5,0,0,1,2.75-.09,1.56,1.56,0,0,1,.89,2.63,10.75,10.75,0,0,1-3,2.65,48.73,48.73,0,0,1-7.55,3.93c-1.85.79-3.71,1.59-5.59,2.3a12.12,12.12,0,0,1-2.26.49c-1.21.22-2.42.42-3.63.61s-2.37.34-3.55.5c-.75.1-1.51.18-2.26.27Z"/><path d="M92.09,67.67A16.15,16.15,0,0,0,88,69c-.9.44-1.76.94-2.64,1.4a2.89,2.89,0,0,1-.8.31,18.17,18.17,0,0,0-7.2,2.58,1,1,0,0,1-.48.12,13.93,13.93,0,0,0-6.34,1.48,6.34,6.34,0,0,1-1.76.28,13.18,13.18,0,0,1-1.53.25,4.18,4.18,0,0,1-.84-.13c-1.29-.18-2.57-.42-3.87-.53-2.85-.24-5.7-.42-8.56-.64h1.22c3,0,6,0,9-.15a39.56,39.56,0,0,0,4-.54c1.46-.21,2.91-.46,4.37-.62,1-.11,2-.08,2.93-.13a1,1,0,0,0,.53-.21,8.7,8.7,0,0,1,6.24-2.18,3.58,3.58,0,0,0,2.36-.69,13.86,13.86,0,0,1,4.39-2,5.13,5.13,0,0,1,2.61-.08A4.17,4.17,0,0,1,92.09,67.67Z"/><path d="M72,74.84c1.22-.24,2.44-.5,3.66-.71.52-.09,1.06-.06,1.59-.1a.83.83,0,0,0,.36-.13,13.17,13.17,0,0,1,3.88-1.84c1.15-.31,2.33-.5,3.48-.8a4.79,4.79,0,0,0,1.08-.55,20.56,20.56,0,0,1,4-1.84,7.91,7.91,0,0,1,3.08-.5,3,3,0,0,1,2,.87,1,1,0,0,1,.08,1.53,7.21,7.21,0,0,1-2.35,1.81,7.63,7.63,0,0,0-.87-1.39,3.2,3.2,0,0,0-2.7-.71A15.42,15.42,0,0,0,84.27,72c-.73.33-1.43.73-2.18,1-.44.18-.94.19-1.4.34-1.2.38-2.39.77-3.58,1.19-.53.2-1,.54-1.55.73a2.12,2.12,0,0,1-.94,0c-.83-.09-1.67-.21-2.5-.32a.29.29,0,0,1-.1,0A.52.52,0,0,1,72,74.84Z"/><path d="M77.11,70.9c-.4.3-.78.62-1.18.92a.49.49,0,0,1-.26.1c-1.07,0-2.15-.06-3.23-.12a17.29,17.29,0,0,1,4.64-1Z"/><path class="cls-5" d="M84.85,44.08l-.14.3v.06C84.78,44.24,84.83,44.12,84.85,44.08Z"/><path class="cls-4" d="M80.78,61.79a1.17,1.17,0,0,0,.16.6A1.68,1.68,0,0,1,80.78,61.79Z"/><path class="cls-6" d="M86.3,52.22a4,4,0,0,1-.21-.41C86.21,52.07,86.3,52.22,86.3,52.22Z"/><path class="cls-6" d="M77.92,43.2a5.07,5.07,0,0,0-.74-.66c-3-2.18-1.89-5.88-1.89-5.88s-1.42,3,1.57,6.1a7.28,7.28,0,0,1,.79,1l.06-.13Z"/><path class="cls-6" d="M80.78,61.79a.28.28,0,0,1,0-.09h0Z"/><path class="cls-6" d="M80.94,62.39v0Z"/><path class="cls-6" d="M77.82,44a5.87,5.87,0,0,1,.24-.63l-.14-.15-.21.4-.06.13Z"/><path class="cls-6" d="M79.27,41.3l-.07-.11a13.75,13.75,0,0,0-1.28,2l.14.15A10.26,10.26,0,0,1,79.27,41.3Z"/><path class="cls-6" d="M80.66,50.72c-.11.39-.2.63-.2.63A1.16,1.16,0,0,0,80.66,50.72Z"/><path class="cls-6" d="M79.44,41.08,79.36,41c0,.07-.11.14-.16.22l.07.11Z"/><path class="cls-4" d="M82.3,61.81a2.91,2.91,0,0,1,.29-.89l-.07,0A3.18,3.18,0,0,0,82.3,61.81Z"/><path class="cls-4" d="M73,66.61a2,2,0,0,0-.85,1.79s0-1,1.6-1.92A3.63,3.63,0,0,0,75,64.12a3.83,3.83,0,0,1-.44.36C74.34,65.9,73.82,66,73,66.61Z"/><path class="cls-6" d="M71.35,61.05a4.49,4.49,0,0,0,2.78.66,2.56,2.56,0,0,0,.69-.27,1.7,1.7,0,0,0,0-.22C73.38,62.14,71.35,61.05,71.35,61.05Z"/><path class="cls-6" d="M78.94,65.75a1.43,1.43,0,0,1-.2-.24A.56.56,0,0,0,78.94,65.75Z"/><path class="cls-6" d="M76.45,62.52a10.78,10.78,0,0,0,2.16-.22l.06-.16A17.49,17.49,0,0,1,76.45,62.52Z"/><path class="cls-4" d="M72.19,65h0Z"/><path class="cls-4" d="M72.19,65a3.2,3.2,0,0,0,2.36-.55l0-.24A3.49,3.49,0,0,1,72.19,65Z"/><path class="cls-6" d="M46.94,54.11l-.07,0Z"/><path class="cls-5" d="M87.13,44a1.71,1.71,0,0,0-.81-.64A2.42,2.42,0,0,1,87.13,44Z"/><path class="cls-6" d="M78.74,65.51c-.19-.34-.37-1.17.16-3.05a2.17,2.17,0,0,1,.07-.24l-.36.08A3.34,3.34,0,0,0,78.74,65.51Z"/><path class="cls-6" d="M46.7,54l-.22-.08A1,1,0,0,0,46.7,54Z"/><path class="cls-6" d="M82,38.6A8.86,8.86,0,0,0,79.36,41l.08.11A13.77,13.77,0,0,1,82,38.6Z"/><path class="cls-4" d="M78.29,38.5a7.56,7.56,0,0,0,.91,2.69c0-.08.11-.15.16-.22A9.55,9.55,0,0,1,78.29,38.5Z"/><path class="cls-7" d="M86.32,43.39Z"/><path class="cls-6" d="M79.62,60.57a1.57,1.57,0,0,0,.29,0l0,0Z"/><path class="cls-6" d="M80.78,61.52l0,0a3.32,3.32,0,0,1,.7-1.3l-.38.11A2.76,2.76,0,0,0,80.78,61.52Z"/><path class="cls-6" d="M81.51,60.2l.06-.07-.41.12,0,.06Z"/><path class="cls-6" d="M78.67,62.14l-.06.16.36-.08s0-.11.07-.17Z"/><path class="cls-4" d="M76,62.29a5.23,5.23,0,0,1-.94,1.49c0,.12,0,.23-.07.34a10.7,10.7,0,0,0,1.62-2.33,3.52,3.52,0,0,1,.35-.5c-.19,0-.36.06-.51.08C76.3,61.65,76.15,62,76,62.29Z"/><path class="cls-6" d="M76.54,61.21l-.09.16c.15,0,.32,0,.51-.08a1.56,1.56,0,0,1,.16-.2Z"/><path class="cls-6" d="M80.78,61.52a.54.54,0,0,0,0,.18h0a1.5,1.5,0,0,1,0-.2Z"/><path class="cls-6" d="M82.63,60.69l-.11.26.07,0a2.69,2.69,0,0,1,.16-.29Z"/><path class="cls-4" d="M87.07,55.05a4.93,4.93,0,0,1-.41,1.07l.09-.11a6.32,6.32,0,0,1-2.38,2.66,5.48,5.48,0,0,0-1.74,2l.12-.06a6.32,6.32,0,0,1,2.54-2.13,8.05,8.05,0,0,1-2.54,2.13,2.69,2.69,0,0,0-.16.29A30.21,30.21,0,0,0,89,55.41a.93.93,0,0,0,.47-.63C88.69,54.86,87.88,55,87.07,55.05Z"/><path class="cls-6" d="M85.88,55.17A3.34,3.34,0,0,1,85,57a14.32,14.32,0,0,1-1.76,2.3,4.63,4.63,0,0,1-1.64.86l-.06.07c.26-.08.54-.17.86-.29,1.73-.62,3.84-3.21,4.29-3.79a4.93,4.93,0,0,0,.41-1.07Z"/><path class="cls-6" d="M84.32,55.3a5.21,5.21,0,0,1-1.1,1.19,20.38,20.38,0,0,0-2.6,2.57,11.66,11.66,0,0,0-2,3.08l.37-.09a6.15,6.15,0,0,1,.87-1.49,1.57,1.57,0,0,1-.29,0l.31,0a18.58,18.58,0,0,1,4.27-3.75,4.55,4.55,0,0,0,.89-1.52Z"/><path class="cls-6" d="M76.53,57a2.11,2.11,0,0,0-.19.23c.49-.35,1-.73,1.45-1.1C77.53,56.34,77.1,56.65,76.53,57Z"/><path class="cls-4" d="M71.31,53.85c-.69.53-1.42,1-2.15,1.5a15.41,15.41,0,0,0,1.76-1.1c-5.58,5.3-13.76,4.2-13.76,4.2s1.28.79,6.87.84a17.6,17.6,0,0,0,9.33-2.47c-3.62,3.61-10,2.85-10,2.85a15.06,15.06,0,0,0,10-2c1.91-1.32,2.76-2,3.14-2.31l.31-.31s0,0-.31.31a17.22,17.22,0,0,1-3.14,2.31c-.35.24-.73.51-1.16.79C67.66,61.6,63.86,60,63.86,60c4.07,2,9.92-1.22,12.67-3A3.53,3.53,0,0,1,78.05,56c.36-.27.72-.53,1.09-.77A57.94,57.94,0,0,1,71.31,53.85Z"/><path class="cls-4" d="M61.75,51.32c-1.91-.51-3.38-1.85-5-3a22.74,22.74,0,0,1-5.78.84c1.37,0,2.42-.06,2.74-.08h0A60.63,60.63,0,0,1,44.1,49a12.44,12.44,0,0,1-5.2-2.36,9.32,9.32,0,0,0,4.44,2.61c-1.84.22-3.94-1.86-3.94-1.86,3.1,4.71,11.46,4.27,11.46,4.27a10.37,10.37,0,0,1-9.15-1.59s.86.83,1.67,1.59a4.54,4.54,0,0,0,1.74,1c.08.44.72.71.72.71,4.23,2.05,12.09-1.23,12.09-1.23-6.54,3-10.32,2.09-11.23,1.79,5.41,2,11.94-1.24,11.94-1.24s-.35.54-4.29,1.63a13.06,13.06,0,0,1-7.41-.25c3.55,1.32,5.71.65,8.06.38a44.18,44.18,0,0,0,6-1.56,24.68,24.68,0,0,1,3-1Z"/><path class="cls-6" d="M56.27,48.06a4.52,4.52,0,0,0-1.81-.62l.3.12-.3-.12h0a16.52,16.52,0,0,1-3.07-1.93,9.11,9.11,0,0,1-3,1,9.11,9.11,0,0,0,3-1c-.58-.43-1.15-.85-1.76-1.24a10.29,10.29,0,0,1-4.16.45l1.07.09c1.63,0,1.12,0,1.12,0s-.43,0-1.12,0l-3.11,0a9,9,0,0,1-7.57-4.2s-.3.86,3.73,4.09,9.79,1.7,9.79,1.7-.48.5-4.05.66-8.62-3.8-8.62-3.8c3.83,5.46,11.69,4.49,11.69,4.49s-.69.33-4.43,0a10.12,10.12,0,0,1-6-2.58,13.91,13.91,0,0,0,4.69,3.08c2,.84,5.67,1,8.26,1a22.74,22.74,0,0,0,5.78-.84Z"/><path class="cls-6" d="M44.54,41.17A21,21,0,0,1,41,40.09c-.39-.14-.79-.44-1.27-.62l.33.23A6.44,6.44,0,0,1,36,35c-.11,3.84,4.37,5.74,4.37,5.74-5.1-1.48-4.64-5.19-4.64-5.19a4.92,4.92,0,0,0,.88,3.74C37.71,41,43.21,42.66,45,43.18a6.54,6.54,0,0,0,2.68,0A26.76,26.76,0,0,1,44.54,41.17Z"/><path class="cls-6" d="M44.54,41.17a35.27,35.27,0,0,1-3.84-3.39l.16.23a12,12,0,0,1-4.15-5.12,8,8,0,0,0,2.22,5,6,6,0,0,1-2.46-4.27c-.38,2.78,2.32,5.11,3.27,5.84.48.18.88.48,1.27.62A21,21,0,0,0,44.54,41.17Z"/><path class="cls-4" d="M48.5,43.63l-.82-.43a6.54,6.54,0,0,1-2.68,0l.57.16s-5.86-1.11-8.12-2.69a4.62,4.62,0,0,1-2.12-3.78s-1,1.3,2,4.69c2,2.19,5.73,2.92,8.12,3.16a10.29,10.29,0,0,0,4.16-.45A11.35,11.35,0,0,0,48.5,43.63Z"/><path class="cls-6" d="M64,51.93a24.68,24.68,0,0,0-3,1l1.26-.4c.9-.32,1-.35,1-.35l-1,.35c-.85.3-2.37.85-5.06,1.89a13.54,13.54,0,0,1-10,0c.78,1.07,2.85.91,2.85.91-.07.81,2,1.24,2,1.24s0,1.71,7,1.55a22.34,22.34,0,0,0,10.07-2.79c.73-.48,1.46-1,2.15-1.5C68.87,53.27,66.44,52.6,64,51.93Z"/><path class="cls-6" d="M79.88,55.24l-.74-.06c-.37.24-.73.5-1.09.77h0l-.27.2c-.48.37-1,.75-1.45,1.1a9.14,9.14,0,0,0-1.48,4,2.21,2.21,0,0,0,.45-.37c.17-.17.34-.35.51-.55a5.25,5.25,0,0,1,.45-1,5.79,5.79,0,0,1,1.9-1.8c1-.88,2.47-1,3.38-2A6.8,6.8,0,0,1,79.88,55.24Z"/><path class="cls-4" d="M83.65,55.34l-1,.07a37.42,37.42,0,0,1-3.34,3.45,37.42,37.42,0,0,0,3.34-3.45c-.37,0-.73,0-1.09,0-.91,1-2.35,1.15-3.38,2a10.33,10.33,0,0,1,1-.51,1.9,1.9,0,0,1,.81-.32,7.11,7.11,0,0,0-.81.32,22.35,22.35,0,0,0-3.3,3.35l-.18.66c.8-.53,1.68-1.24,2.39-1.82A6.48,6.48,0,0,1,79.29,58s-.53.48-1.26,1.1a10.4,10.4,0,0,0-1.49,2.07l.58-.12a26.69,26.69,0,0,1,2.77-2.72,8.77,8.77,0,0,1-1.17,1.76,2.92,2.92,0,0,1-1.6,1,1.56,1.56,0,0,0-.16.2l.34-.08c1.45-.37,3.73-2.63,3.73-2.63l-.41.48a20.38,20.38,0,0,1,2.6-2.57,5.21,5.21,0,0,0,1.1-1.19Z"/><path class="cls-6" d="M85.09,55.25a4.55,4.55,0,0,1-.89,1.52l0,0s0,.3-2.09,2.27a5.61,5.61,0,0,0-1,1.23l.41-.12a7,7,0,0,1,1.7-1.49,12.45,12.45,0,0,0,2.18-2.43s-.19.32-.48.76a3.34,3.34,0,0,0,.91-1.8Z"/><path class="cls-4" d="M46,39.88a33.47,33.47,0,0,0-1.76-3.44,12.06,12.06,0,0,0-2.93-3.15,12.33,12.33,0,0,1,3.28,6.11,2,2,0,0,1,.16.91s0-.35-.16-.91c0-.07,0-.15-.08-.23a8.32,8.32,0,0,1,.25,1.48,8.32,8.32,0,0,0-.25-1.48,17.53,17.53,0,0,0-1.13-2.45A13.93,13.93,0,0,0,38.73,32l.09.07A5,5,0,0,1,40.7,35.4a13.3,13.3,0,0,0-3.08-3.09,10.55,10.55,0,0,1,2.79,4.17.41.41,0,0,1,.06.14l-.06-.14a9.55,9.55,0,0,0-1.13-1.6,11.63,11.63,0,0,0-2.43-2.27c1.52,1.8,3.32,4.39,3.85,5.17a30.44,30.44,0,0,0,6.84,5.34c-.54-1.19-1.08-2.31-1.62-3.48Z"/><path class="cls-4" d="M51.41,34.09a15.31,15.31,0,0,0-6-4.84c4.74,3,5.74,8.56,5.85,12a9.87,9.87,0,0,1,0,2,5.63,5.63,0,0,1-.13,1.19s0-.26.08-.71c-.07.48-.15,1-.25,1.43a20,20,0,0,0,3.55,2.28,4.49,4.49,0,0,1,1.12.28,10.16,10.16,0,0,0-.18-3.43c0,.29.06.46.06.46S53.7,37.39,51.41,34.09Z"/><path class="cls-6" d="M56.48,30.46a9.38,9.38,0,0,0-5.83-2.12C56.12,31,61.1,44.73,61.1,44.73S60.82,44,60.37,43c.94,2.76,2.15,5.64,2.05,8.54l3.25.89a26.59,26.59,0,0,0,.18-7.55A10.55,10.55,0,0,1,66,46C65.47,39.65,59,32.67,56.48,30.46Z"/><path class="cls-6" d="M79.7,51.13a1,1,0,0,1,0,.15,8.05,8.05,0,0,1-2.12-3.79A6.54,6.54,0,0,1,77.82,44l-.17-.25C75.9,47.52,78.71,52,78.71,52l0,0a38.39,38.39,0,0,0,2.53,3.47,13.59,13.59,0,0,0,1.56,0A22.11,22.11,0,0,1,79.7,51.13Z"/><path class="cls-4" d="M79.9,41.58a2.76,2.76,0,0,1-.46-.5l-.17.22a3,3,0,0,0,.7.77c1.38,1.06,2.12,4.37,2.31,6.62a8.58,8.58,0,0,0,1.15,3.59c1,.88,1.83,1.93,2.76,2.86l.84-.09a11.92,11.92,0,0,1-1.57-2.29,8.58,8.58,0,0,1-2.85-6.33C82.67,43.48,80.91,42.41,79.9,41.58Z"/><path class="cls-6" d="M86.68,46a5.76,5.76,0,0,0-.85,5.12A21.41,21.41,0,0,0,88,54.94l.55-.06a29.81,29.81,0,0,1-1.84-3.08A6.27,6.27,0,0,1,86.68,46Z"/><path class="cls-4" d="M87.13,44c.71,1,.63,2.85-.12,4.45a3.86,3.86,0,0,0-.28,3.34l0,0a29.81,29.81,0,0,0,1.84,3.08l1-.1A2,2,0,0,0,89,53.41a9,9,0,0,1-1.27-6A3.83,3.83,0,0,0,87.13,44Z"/><path class="cls-6" d="M84.71,44.38l.14-.3h0s-.07.16-.14.36a18,18,0,0,0,1.13,8A28.47,28.47,0,0,0,87.46,55l.54-.06a21.41,21.41,0,0,1-2.17-3.8,6.35,6.35,0,0,0,.26.67,4,4,0,0,0,.21.41s-.09-.15-.21-.41A14.14,14.14,0,0,1,85,43.07,8.06,8.06,0,0,0,84.71,44.38Z"/><path class="cls-6" d="M85.53,52.81l-.07-.05A11.92,11.92,0,0,0,87,55.05l.43,0a28.47,28.47,0,0,1-1.62-2.57c.11.3.18.47.18.47a9.11,9.11,0,0,1-1.31-8.46v-.06C82.8,48.77,85.53,52.81,85.53,52.81Z"/><path class="cls-6" d="M83.55,52.45s-.91,0-1.23-2.32a11.65,11.65,0,0,0-2.15-4.68,7.12,7.12,0,0,1,.49,5.27,1.16,1.16,0,0,1-.2.63s.09-.24.2-.63a12,12,0,0,0-2.6-7.37,5.87,5.87,0,0,0-.24.63,14.58,14.58,0,0,1,1.88,7.15,22.11,22.11,0,0,0,3.07,4.27l.88-.06c.85,0,1.7-.11,2.54-.2-.93-.93-1.77-2-2.76-2.86Z"/><path class="cls-6" d="M66.7,35.2a9.14,9.14,0,0,1,2.35,2.47A38.84,38.84,0,0,1,72,44.39,37.8,37.8,0,0,1,74,51.7l-.1-.15a24.76,24.76,0,0,1,0,2.86,48.15,48.15,0,0,0,6,.83l-.34-.09.34.09h0a6.65,6.65,0,0,0,1.33.18A38.39,38.39,0,0,1,78.68,52c-1.55-1.58-2.77-7.61-4.47-10.51S66.7,35.2,66.7,35.2Z"/><path class="cls-6" d="M74,51.7A37.8,37.8,0,0,0,72,44.39l.24.71a28.42,28.42,0,0,0-4.73-8.31,16.38,16.38,0,0,0-3.78-2.68c3,2.64,5.66,9.87,5.66,9.87l-.27-.53a51.17,51.17,0,0,1,3.12,9.36,2.15,2.15,0,0,1,0,1.23l1.74.37a24.76,24.76,0,0,0,0-2.86Z"/><path class="cls-6" d="M63,33.92a30.49,30.49,0,0,0-6.82-4.29,35.63,35.63,0,0,1,4.55,4.18,21.06,21.06,0,0,1,5.17,11,26.59,26.59,0,0,1-.18,7.55C67.84,53,70,53.56,72.17,54a2.15,2.15,0,0,0,0-1.23,51.17,51.17,0,0,0-3.12-9.36C68.15,41.67,65.08,35.91,63,33.92Z"/><path class="cls-6" d="M57.69,37.66C56,35,53.56,31.09,51,29.29s-4.2-.89-4.2-.89a9.57,9.57,0,0,1,2.77,2c4.31,4.34,5.6,12,5.87,13.91a10.16,10.16,0,0,1,.18,3.43,7.37,7.37,0,0,1,.69.34c1.84,1.16,3.4,2.71,5.48,3.26l.67.18c.1-2.9-1.11-5.78-2.05-8.54A44,44,0,0,0,57.69,37.66Z"/><path class="cls-4" d="M51.21,42.83C51.08,39.09,48.5,33.94,47,32a8.24,8.24,0,0,0-3.88-2.75c3.23,2.32,4.37,7.78,4.37,7.78a14.26,14.26,0,0,0-5.78-6.64,18.66,18.66,0,0,1,6.51,11.8c.1.46.19.93.27,1.38l0,0a15.84,15.84,0,0,1,2.41,1.53c.1-.48.18-.95.25-1.43C51.18,43.49,51.2,43.19,51.21,42.83Z"/><path class="cls-6" d="M51.21,41.29c0,.58,0,1.1,0,1.54v.42A9.87,9.87,0,0,0,51.21,41.29Z"/><path class="cls-6" d="M45,34.73a17.58,17.58,0,0,0-5.32-3.88,13,13,0,0,1,6.28,8.79c.54,1.17,1.08,2.29,1.62,3.48.3.17.6.33.91.48-.08-.45-.17-.92-.27-1.38l0,.2S46.8,37,45,34.73Z"/><path class="cls-6" d="M81.16,60.25a11.56,11.56,0,0,1-1.23.27l0,0a8.35,8.35,0,0,0,1.22-.25Z"/><path class="cls-4" d="M81.31,61.32l-.5.18a1.5,1.5,0,0,0,0,.2c.43-.15.88-.34,1.34-.55l.39-.2.11-.26A14.43,14.43,0,0,1,81.31,61.32Z"/><path class="cls-4" d="M74.58,64.24l0,.24a3.83,3.83,0,0,0,.44-.36c0-.11.05-.22.07-.34A3.43,3.43,0,0,1,74.58,64.24Z"/><path class="cls-4" d="M79,62.05c0,.06-.05.12-.07.17a12.85,12.85,0,0,0,1.81-.52.54.54,0,0,1,0-.18C80.17,61.74,79.58,61.91,79,62.05Z"/><path class="cls-4" d="M75.64,61l.18-.66c-.17.2-.34.38-.51.55a2.21,2.21,0,0,1-.45.37,1.7,1.7,0,0,1,0,.22A6.64,6.64,0,0,0,75.64,61Z"/><path class="cls-6" d="M46.54,44.81c.69,0,1.12,0,1.12,0S48.17,44.83,46.54,44.81Z"/><path class="cls-6" d="M53.68,49.12h0Z"/><path class="cls-6" d="M63.33,52.18s-.15,0-1,.35Z"/><path class="cls-6" d="M44.54,39.4c.12.56.16.91.16.91A2,2,0,0,0,44.54,39.4Z"/><path class="cls-6" d="M76.49,55.41c-.38.32-1.23,1-3.14,2.31A17.22,17.22,0,0,0,76.49,55.41Z"/><path class="cls-6" d="M40.47,36.62a.41.41,0,0,0-.06-.14Z"/><path class="cls-6" d="M79.12,57a7.11,7.11,0,0,1,.81-.32A1.9,1.9,0,0,0,79.12,57Z"/><path class="cls-6" d="M75.55,61.35a3.06,3.06,0,0,0,.9,0l.09-.16a6.6,6.6,0,0,1-1,.07A.25.25,0,0,0,75.55,61.35Z"/><path class="cls-6" d="M75.3,61.28a1,1,0,0,0,.25.07.25.25,0,0,1,0-.07Z"/><path class="cls-6" d="M51.08,44.44a6.37,6.37,0,0,0,.13-1.61C51.17,43.83,51.08,44.44,51.08,44.44Z"/><path class="cls-4" d="M75.55,61.35a1,1,0,0,1-.25-.07h.27c0-.11.05-.22.07-.32a6.64,6.64,0,0,1-.82.48,17.29,17.29,0,0,0-.17,1.91c0,.34,0,.63-.07.89a3.43,3.43,0,0,0,.48-.46C75.24,63,75.37,62.14,75.55,61.35Z"/><path class="cls-6" d="M78,59.14c.73-.62,1.26-1.1,1.26-1.1A6.48,6.48,0,0,0,78,59.14Z"/><path class="cls-6" d="M76.53,57c1-.62,1.53-1.07,1.53-1.07A3.56,3.56,0,0,0,76.53,57Z"/><path class="cls-6" d="M53.59,47.2a6.62,6.62,0,0,1-4.07.64,14.32,14.32,0,0,0,5.63.22Z"/><path class="cls-6" d="M56.85,48.93s-1.72,1.48-6.14,1.44-5.56-.58-5.56-.58,7.6,3,13.62.27Z"/><path class="cls-6" d="M52.87,46.05a4.74,4.74,0,0,1-.7-3.44,8.39,8.39,0,0,0,2.6,4.45Z"/><path class="cls-6" d="M60.66,50s-1.85-1.45-2.23-6c0,0,1,4.82,3,6.48Z"/><path class="cls-6" d="M68.5,52.91s-1.65-2.46-1.33-4.61a19.87,19.87,0,0,0,.06-4.46s.31,3.51.55,4.64a38,38,0,0,0,2.5,5.15Z"/><path class="cls-6" d="M84.29,44.15c0,.09-.09.19-.13.29s0,0,0,.07C84.22,44.31,84.28,44.18,84.29,44.15Z"/><path class="cls-4" d="M80.23,61.86a1,1,0,0,0,.15.59A1.76,1.76,0,0,1,80.23,61.86Z"/><path class="cls-6" d="M85.74,52.28l-.21-.41C85.65,52.13,85.74,52.28,85.74,52.28Z"/><path class="cls-4" d="M77.37,43.26a5.14,5.14,0,0,0-.75-.66c-3-2.18-1.89-5.87-1.89-5.87s-1.42,3,1.58,6.09a9,9,0,0,1,.79,1l.06-.13Z"/><path class="cls-6" d="M80.23,61.86v-.1h0A.28.28,0,0,0,80.23,61.86Z"/><path class="cls-6" d="M80.38,62.45l0,0Z"/><path class="cls-4" d="M77.26,44c.07-.21.16-.42.25-.63l-.14-.15-.21.4-.06.13C77.15,43.88,77.21,44,77.26,44Z"/><path class="cls-6" d="M78.72,41.36l-.08-.11a14.32,14.32,0,0,0-1.27,2l.14.15A9.63,9.63,0,0,1,78.72,41.36Z"/><path class="cls-6" d="M80.1,50.78c-.1.39-.19.63-.19.63A1.17,1.17,0,0,0,80.1,50.78Z"/><path class="cls-6" d="M78.89,41.14a.44.44,0,0,1-.08-.11l-.17.22.08.11Z"/><path class="cls-4" d="M81.75,61.87A2.9,2.9,0,0,1,82,61L82,61A2.81,2.81,0,0,0,81.75,61.87Z"/><path class="cls-6" d="M72.44,66.68a2.05,2.05,0,0,0-.86,1.79s0-1,1.6-1.93a3.63,3.63,0,0,0,1.25-2.36,3.73,3.73,0,0,1-.43.36C73.78,66,73.26,66,72.44,66.68Z"/><path class="cls-4" d="M70.79,61.12a4.56,4.56,0,0,0,2.79.65,2.62,2.62,0,0,0,.69-.26l0-.23C72.82,62.2,70.79,61.12,70.79,61.12Z"/><path class="cls-6" d="M78.39,65.81a1.59,1.59,0,0,1-.2-.23A.56.56,0,0,0,78.39,65.81Z"/><path class="cls-4" d="M75.89,62.58a10.73,10.73,0,0,0,2.16-.22l.07-.16A17.77,17.77,0,0,1,75.89,62.58Z"/><path class="cls-4" d="M71.63,65.09h0Z"/><path class="cls-4" d="M71.63,65.09A3.23,3.23,0,0,0,74,64.54l0-.24A3.46,3.46,0,0,1,71.63,65.09Z"/><path class="cls-6" d="M46.38,54.17l-.06,0Z"/><path class="cls-5" d="M86.58,44.09a1.73,1.73,0,0,0-.81-.63A2.36,2.36,0,0,1,86.58,44.09Z"/><path class="cls-6" d="M78.19,65.58c-.19-.35-.37-1.17.15-3.06a1.55,1.55,0,0,1,.08-.23l-.37.07A3.33,3.33,0,0,0,78.19,65.58Z"/><path class="cls-6" d="M46.14,54,45.92,54Z"/><path class="cls-6" d="M81.42,38.66A8.91,8.91,0,0,0,78.81,41a.44.44,0,0,0,.08.11A13.82,13.82,0,0,1,81.42,38.66Z"/><path class="cls-4" d="M77.73,38.56a7.5,7.5,0,0,0,.91,2.69l.17-.22A9.36,9.36,0,0,1,77.73,38.56Z"/><path class="cls-7" d="M85.77,43.46h0Z"/><path class="cls-6" d="M79.06,60.63a1.59,1.59,0,0,0,.29,0l0,0Z"/><path class="cls-6" d="M80.22,61.58h0a3.23,3.23,0,0,1,.7-1.31l-.38.11A2.66,2.66,0,0,0,80.22,61.58Z"/><path class="cls-6" d="M81,60.26l.06-.07-.41.12,0,.06Z"/><path class="cls-6" d="M78.12,62.2l-.07.16.37-.07.06-.18Z"/><path class="cls-4" d="M75.45,62.35a5.69,5.69,0,0,1-.94,1.5c0,.11-.05.22-.08.33a9.84,9.84,0,0,0,1.62-2.33,5.21,5.21,0,0,1,.35-.5c-.19,0-.35.06-.51.08C75.74,61.72,75.59,62,75.45,62.35Z"/><path class="cls-4" d="M76,61.27l-.09.16c.16,0,.32,0,.51-.08l.16-.2C76.37,61.2,76.17,61.24,76,61.27Z"/><path class="cls-6" d="M80.22,61.58v.19h0a1.25,1.25,0,0,1,0-.19Z"/><path class="cls-6" d="M82.08,60.75c0,.09-.08.18-.12.27L82,61a2.69,2.69,0,0,1,.16-.29Z"/><path class="cls-4" d="M86.51,55.11a4.29,4.29,0,0,1-.4,1.07l.09-.11a6.45,6.45,0,0,1-2.39,2.67,5.44,5.44,0,0,0-1.73,2l.11-.06a6.42,6.42,0,0,1,2.55-2.13,8,8,0,0,1-2.55,2.13A2.69,2.69,0,0,0,82,61c3-1.64,6.45-5.5,6.45-5.5a1,1,0,0,0,.48-.64C88.14,54.92,87.33,55,86.51,55.11Z"/><path class="cls-6" d="M85.32,55.24a3.36,3.36,0,0,1-.9,1.79,14.38,14.38,0,0,1-1.77,2.3,4.36,4.36,0,0,1-1.63.86l-.06.07c.25-.08.54-.17.85-.29,1.74-.62,3.84-3.21,4.3-3.79a4.29,4.29,0,0,0,.4-1.07Z"/><path class="cls-6" d="M83.77,55.37a5.64,5.64,0,0,1-1.1,1.18,19.74,19.74,0,0,0-2.6,2.57,11.4,11.4,0,0,0-1.95,3.08l.36-.09a6.5,6.5,0,0,1,.87-1.49,1.59,1.59,0,0,1-.29,0l.32-.05a18.88,18.88,0,0,1,4.26-3.75,4.38,4.38,0,0,0,.89-1.52Z"/><path class="cls-6" d="M76,57.08a2.11,2.11,0,0,0-.19.23c.48-.35,1-.73,1.45-1.1C77,56.4,76.54,56.71,76,57.08Z"/><path class="cls-6" d="M70.55,53.61c-.69.54-1.41,1-2.14,1.5A15.41,15.41,0,0,0,70.17,54c-5.59,5.31-13.76,4.2-13.76,4.2s1.28.79,6.87.85a17.73,17.73,0,0,0,9.3-2.46,9.55,9.55,0,0,0,1.7-2.22C73,54.16,71.79,53.9,70.55,53.61Z"/><path class="cls-4" d="M74.48,54.68a10.13,10.13,0,0,1-1.7,2.22h0c-3.62,3.6-10,2.84-10,2.84A14.84,14.84,0,0,0,72.48,58a23.61,23.61,0,0,0,3.78-3C75.67,54.88,75.07,54.79,74.48,54.68Z"/><path class="cls-4" d="M76.26,55a23.61,23.61,0,0,1-3.78,3,3.07,3.07,0,0,0,.31-.17c1.91-1.32,2.76-2,3.14-2.31a3.47,3.47,0,0,0,.31-.31s0,.05-.31.31a16.85,16.85,0,0,1-3.14,2.31l-1.15.8c-4.53,3.08-8.33,1.5-8.33,1.5,4.06,2,9.92-1.22,12.67-3A3.39,3.39,0,0,1,77.5,56c.36-.28.72-.54,1.09-.78C77.81,55.17,77,55.08,76.26,55Z"/><path class="cls-6" d="M58,49.71a31.75,31.75,0,0,1-7.76,2h.1a10.42,10.42,0,0,1-9.16-1.58l1.68,1.58a4.32,4.32,0,0,0,1.74,1c.08.44.72.72.72.72,3.32,1.6,8.88-.08,11.11-.87A30.57,30.57,0,0,0,60.09,51,13.07,13.07,0,0,1,58,49.71Z"/><path class="cls-4" d="M61.2,51.38a6.64,6.64,0,0,1-1.11-.4,30.57,30.57,0,0,1-3.69,1.63c.61-.22,1-.37,1-.37-6.53,3-10.32,2.1-11.23,1.79C51.55,56,58.08,52.8,58.08,52.8s-.35.53-4.29,1.62a13.06,13.06,0,0,1-7.41-.25c3.56,1.33,5.71.66,8.06.38a44.18,44.18,0,0,0,6-1.56,25.92,25.92,0,0,1,3-1Z"/><path class="cls-4" d="M56.17,48.42a23.27,23.27,0,0,1-5.78.85c1.37,0,2.42-.07,2.73-.09h0a60.51,60.51,0,0,1-9.57-.08,12.31,12.31,0,0,1-5.2-2.36,9.31,9.31,0,0,0,4.43,2.61c-1.84.22-3.93-1.86-3.93-1.86,2.9,4.42,10.44,4.3,11.36,4.27a31.75,31.75,0,0,0,7.76-2C57.37,49.28,56.78,48.83,56.17,48.42Z"/><path class="cls-6" d="M50.23,47.29c-.7.16-1.41.31-2.12.45A10.81,10.81,0,0,0,50.23,47.29Z"/><path class="cls-6" d="M50.23,47.29c.75-.17,1.49-.35,2.25-.57l-.06,0c-.48.12-1,.25-1.43.36C50.74,47.14,50.48,47.22,50.23,47.29Z"/><path class="cls-6" d="M47.79,47.77l.32,0c.71-.14,1.42-.29,2.12-.45.25-.07.51-.15.76-.24-.92.23-1.84.43-2.77.61Z"/><path class="cls-6" d="M55.71,48.13a4.42,4.42,0,0,0-1.81-.63l.3.12-.3-.12h0a10.26,10.26,0,0,1-1.42-.78c-.76.22-1.5.4-2.25.57a10.81,10.81,0,0,1-2.12.45l-.67.14.67-.14-.32,0-.12,0,.17,0s-.69.34-4.42,0a10.19,10.19,0,0,1-6-2.57,14,14,0,0,0,4.69,3.07c2,.84,5.68,1,8.27,1a23.27,23.27,0,0,0,5.78-.85C56,48.32,55.87,48.22,55.71,48.13Z"/><path class="cls-6" d="M51,47.05l1.33-.43h0l-4.09,1C49.15,47.48,50.07,47.28,51,47.05Z"/><path class="cls-4" d="M47.59,47.78h.2l.43-.11-.83.14.83-.14,4.09-1c-.42-.27-.83-.56-1.23-.86a19.57,19.57,0,0,1-3.3.88,8.55,8.55,0,0,0,1-.2s-.47.5-4,.66-8.62-3.8-8.62-3.8c3.49,5,10.33,4.61,11.51,4.51l.12,0Z"/><path class="cls-6" d="M52.42,46.69l-.1-.07L51,47.05C51.47,46.94,51.94,46.81,52.42,46.69Z"/><path class="cls-6" d="M44,41.23a20.26,20.26,0,0,1-3.54-1.08c-.38-.14-.78-.44-1.26-.62l.32.24a6.46,6.46,0,0,1-4.08-4.71c-.12,3.85,4.37,5.74,4.37,5.74-5.11-1.47-4.65-5.19-4.65-5.19A5,5,0,0,0,36,39.35c1.12,1.66,6.62,3.38,8.41,3.9a6.72,6.72,0,0,0,2.68,0A25.54,25.54,0,0,1,44,41.23Z"/><path class="cls-4" d="M44,41.23a34.35,34.35,0,0,1-3.84-3.39l.16.23A11.88,11.88,0,0,1,36.16,33a7.9,7.9,0,0,0,2.22,5,6,6,0,0,1-2.47-4.27c-.37,2.79,2.32,5.11,3.28,5.84.48.18.88.48,1.26.62A20.26,20.26,0,0,0,44,41.23Z"/><path class="cls-4" d="M48,43.69l-.82-.43a6.72,6.72,0,0,1-2.68,0l.56.16s-5.86-1.11-8.11-2.7a4.59,4.59,0,0,1-2.12-3.78s-1.05,1.3,2,4.69c2,2.2,5.73,2.92,8.12,3.16a10.17,10.17,0,0,0,4.17-.45A12.6,12.6,0,0,0,48,43.69Z"/><path class="cls-4" d="M63.43,52a25.92,25.92,0,0,0-3,1l1.26-.4c.9-.32,1.05-.35,1.05-.35l-1.05.35c-.85.3-2.37.86-5,1.89a13.57,13.57,0,0,1-10,0c.78,1.08,2.85.91,2.85.91-.07.82,2,1.25,2,1.25s.05,1.7,7,1.55a22.2,22.2,0,0,0,10.07-2.8c.73-.48,1.45-1,2.14-1.5C68.31,53.34,65.88,52.66,63.43,52Z"/><path class="cls-6" d="M79.33,55.3c-.25,0-.5,0-.74-.06-.37.24-.73.5-1.09.78h0l-.27.2c-.49.37-1,.75-1.45,1.1a9.33,9.33,0,0,0-1.49,4,2.26,2.26,0,0,0,.46-.37l.51-.55a4.44,4.44,0,0,1,.45-1,5.63,5.63,0,0,1,1.9-1.81c1-.88,2.46-1,3.38-2A7.26,7.26,0,0,1,79.33,55.3Z"/><path class="cls-4" d="M83.09,55.41l-1,.06a37.3,37.3,0,0,1-3.33,3.45,37.3,37.3,0,0,0,3.33-3.45q-.54,0-1.08,0c-.92,1-2.36,1.14-3.38,2a9.18,9.18,0,0,1,.95-.51,1.9,1.9,0,0,1,.81-.32,7.11,7.11,0,0,0-.81.32,21.44,21.44,0,0,0-3.3,3.35,6.36,6.36,0,0,0-.18.66c.79-.53,1.68-1.24,2.38-1.82a6.85,6.85,0,0,1,1.26-1.1s-.53.48-1.26,1.1A10.4,10.4,0,0,0,76,61.27c.19,0,.39-.07.58-.12a26.69,26.69,0,0,1,2.77-2.72,8.24,8.24,0,0,1-1.16,1.76,3,3,0,0,1-1.61,1l-.16.2.34-.08c1.46-.37,3.74-2.63,3.74-2.63l-.41.48a19.74,19.74,0,0,1,2.6-2.57,5.64,5.64,0,0,0,1.1-1.18Z"/><path class="cls-6" d="M84.53,55.31a4.38,4.38,0,0,1-.89,1.52l0,0s0,.3-2.09,2.28a5,5,0,0,0-1,1.22l.41-.12a7.22,7.22,0,0,1,1.69-1.49,12.12,12.12,0,0,0,2.18-2.43s-.18.32-.47.76a3.36,3.36,0,0,0,.9-1.79Z"/><path class="cls-6" d="M40,35.55a13.3,13.3,0,0,0-3.08-3.09,10.71,10.71,0,0,1,2.79,4.16.45.45,0,0,1,.05.15s0-.05-.05-.15A10,10,0,0,0,38.6,35a11.53,11.53,0,0,0-2.44-2.27c1.52,1.8,3.32,4.39,3.86,5.17.55.55,1.11,1.09,1.69,1.62A27,27,0,0,0,40,35.47.45.45,0,0,1,40,35.55Z"/><path class="cls-6" d="M43.71,39c.06.2.1.39.14.55a.64.64,0,0,0,0,.07A4.71,4.71,0,0,0,43.71,39Z"/><path class="cls-6" d="M43.89,39.73c0-.06,0-.12,0-.19s-.05-.14-.08-.22a6.36,6.36,0,0,1,.16.73C43.92,39.94,43.91,39.84,43.89,39.73Z"/><path class="cls-6" d="M40.57,33.44A12,12,0,0,1,43.71,39a4.71,4.71,0,0,1,.16.62,2,2,0,0,1,.15.85,7.34,7.34,0,0,0-.13-.73c0,.11,0,.21,0,.32s.08.5.1.75c0-.25-.06-.5-.1-.75,0,.46.06.92.08,1.38a27,27,0,0,0,2.84,1.84c-.53-1.2-1.08-2.31-1.62-3.48a1.31,1.31,0,0,1,0,.23,32.8,32.8,0,0,0-1.76-3.43A11.7,11.7,0,0,0,40.57,33.44Z"/><path class="cls-6" d="M43.77,39.32a17,17,0,0,0-1.13-2.45,13.85,13.85,0,0,0-4.59-4.71l.08.07A5.15,5.15,0,0,1,40,35.47a27,27,0,0,1,1.7,4.08c.74.66,1.51,1.29,2.3,1.88,0-.46,0-.92-.08-1.38A6.36,6.36,0,0,0,43.77,39.32Z"/><path class="cls-6" d="M50.86,34.15a15.31,15.31,0,0,0-6.06-4.84c4.75,3.05,5.74,8.56,5.85,12a9.18,9.18,0,0,1,0,2,6.38,6.38,0,0,1-.13,1.19s0-.26.07-.7c-.06.47-.15.94-.24,1.42A19.61,19.61,0,0,0,53.9,47.5a3.92,3.92,0,0,1,1.12.29,10.2,10.2,0,0,0-.18-3.44l.06.46S53.14,37.45,50.86,34.15Z"/><path class="cls-4" d="M55.93,30.52a9.42,9.42,0,0,0-5.84-2.12c5.48,2.67,10.46,16.39,10.46,16.39s-.29-.72-.74-1.76c.94,2.75,2.16,5.63,2.06,8.53l3.24.89a26.59,26.59,0,0,0,.19-7.55c.1.74.12,1.18.12,1.18C64.91,39.71,58.47,32.73,55.93,30.52Z"/><path class="cls-6" d="M79.21,51.45v.15a8,8,0,0,1-2.13-3.79,6.64,6.64,0,0,1,.25-3.51c0-.08-.11-.16-.16-.25-1.76,3.79,1,8.25,1,8.25l0,0a40.42,40.42,0,0,0,2.53,3.47,13.79,13.79,0,0,0,1.57,0A22.16,22.16,0,0,1,79.21,51.45Z"/><path class="cls-4" d="M79.34,41.64a2.75,2.75,0,0,1-.45-.5l-.17.22a3.18,3.18,0,0,0,.69.77c1.38,1.06,2.12,4.38,2.31,6.62a8.55,8.55,0,0,0,1.16,3.59c1,.88,1.83,1.93,2.75,2.86l.84-.09a12.61,12.61,0,0,1-1.56-2.28,8.63,8.63,0,0,1-2.85-6.34C82.12,43.54,80.35,42.48,79.34,41.64Z"/><path class="cls-6" d="M86.12,46.08a5.73,5.73,0,0,0-.84,5.12A21.36,21.36,0,0,0,87.44,55l.56-.06a26.64,26.64,0,0,1-1.84-3.08A6.25,6.25,0,0,1,86.12,46.08Z"/><path class="cls-4" d="M86.58,44.09c.7,1,.63,2.85-.12,4.46a3.85,3.85,0,0,0-.29,3.34v0A26.64,26.64,0,0,0,88,54.94l1-.1a2,2,0,0,0-.49-1.37,8.89,8.89,0,0,1-1.27-6A3.84,3.84,0,0,0,86.58,44.09Z"/><path class="cls-4" d="M84.16,44.44c0-.1.09-.2.13-.29v0s-.07.16-.14.36a17.91,17.91,0,0,0,1.14,8,27.72,27.72,0,0,0,1.61,2.58l.54-.07a21.36,21.36,0,0,1-2.16-3.8,4.84,4.84,0,0,0,.25.67l.21.41s-.09-.15-.21-.41a14.09,14.09,0,0,1-1.06-8.74A8.32,8.32,0,0,0,84.16,44.44Z"/><path class="cls-4" d="M85,52.88l-.07-.05a12.61,12.61,0,0,0,1.56,2.28l.43,0a27.72,27.72,0,0,1-1.61-2.58c.11.3.18.47.18.47a9.11,9.11,0,0,1-1.32-8.45s0,0,0-.07C82.25,48.83,85,52.88,85,52.88Z"/><path class="cls-4" d="M83,52.52s-.9,0-1.22-2.33a11.65,11.65,0,0,0-2.15-4.68,7.16,7.16,0,0,1,.48,5.27,1.17,1.17,0,0,1-.19.63s.09-.24.19-.63a11.89,11.89,0,0,0-2.59-7.37c-.09.21-.18.42-.25.63a14.37,14.37,0,0,1,1.88,7.15,22.16,22.16,0,0,0,3.08,4.27l.87-.05c.86,0,1.7-.12,2.54-.21-.92-.93-1.76-2-2.75-2.86Z"/><path class="cls-4" d="M66.15,35.26a9,9,0,0,1,2.34,2.48,37,37,0,0,1,2.9,6.71,37.3,37.3,0,0,1,2.09,7.31l-.1-.15a24.78,24.78,0,0,1,0,2.86,47.89,47.89,0,0,0,6,.83,1.89,1.89,0,0,1-.34-.09,1.89,1.89,0,0,0,.34.09l.16,0-.16,0a6.65,6.65,0,0,0,1.32.18A40.42,40.42,0,0,1,78.12,52c-1.55-1.58-2.77-7.61-4.46-10.51S66.15,35.26,66.15,35.26Z"/><path class="cls-6" d="M73.48,51.76a37.3,37.3,0,0,0-2.09-7.31c.16.44.25.71.25.71a28.21,28.21,0,0,0-4.74-8.31,16.16,16.16,0,0,0-3.78-2.68c3.05,2.64,5.66,9.88,5.66,9.88s-.09-.2-.27-.53a50.84,50.84,0,0,1,3.13,9.35,2.28,2.28,0,0,1,0,1.24l1.74.36a24.78,24.78,0,0,0,0-2.86Z"/><path class="cls-4" d="M62.39,34a30.08,30.08,0,0,0-6.82-4.29,35.06,35.06,0,0,1,4.55,4.17,21,21,0,0,1,5.18,11,26.59,26.59,0,0,1-.19,7.55c2.18.59,4.34,1.17,6.51,1.66a2.28,2.28,0,0,0,0-1.24,50.84,50.84,0,0,0-3.13-9.35C67.59,41.74,64.53,36,62.39,34Z"/><path class="cls-6" d="M57.13,37.73C55.43,35,53,31.15,50.4,29.36s-4.19-.9-4.19-.9a9.57,9.57,0,0,1,2.77,2c4.31,4.34,5.6,12,5.86,13.91A10.2,10.2,0,0,1,55,47.79a4.43,4.43,0,0,1,.69.34c1.84,1.15,3.4,2.7,5.49,3.25l.67.18c.1-2.9-1.12-5.78-2.06-8.53A40,40,0,0,0,57.13,37.73Z"/><path class="cls-4" d="M47,37.05c0,.18.07.28.07.28a14.21,14.21,0,0,0-5.78-6.63,18.73,18.73,0,0,1,6.52,11.79c.1.46.19.93.27,1.39l.05,0,0,0C48.63,41.59,47.83,39.26,47,37.05Z"/><path class="cls-6" d="M46.54,32.31a8.1,8.1,0,0,0-3.87-2.75c2.79,2,4,6.34,4.29,7.49.87,2.21,1.67,4.54,1.16,6.87a16.79,16.79,0,0,1,2.38,1.51c.09-.48.18-1,.24-1.42,0-.25,0-.55,0-.9C50.67,39.37,48.09,34.22,46.54,32.31Z"/><path class="cls-6" d="M50.65,41.35c0,.58,0,1.1,0,1.54,0,.14,0,.28,0,.42A9.18,9.18,0,0,0,50.65,41.35Z"/><path class="cls-4" d="M44.4,34.79a17.58,17.58,0,0,0-5.32-3.88,13,13,0,0,1,6.28,8.79C45.9,40.87,46.45,42,47,43.18c.3.17.61.33.92.48-.08-.45-.17-.92-.27-1.38,0,.13,0,.2,0,.2S46.25,37.06,44.4,34.79Z"/><path class="cls-6" d="M80.61,60.31a9.87,9.87,0,0,1-1.23.27l0,0a8.67,8.67,0,0,0,1.23-.25Z"/><path class="cls-4" d="M80.75,61.38l-.49.19a1.25,1.25,0,0,0,0,.19,14.24,14.24,0,0,0,1.35-.55L82,61c0-.09.07-.18.12-.27A12.35,12.35,0,0,1,80.75,61.38Z"/><path class="cls-8" d="M74,64.3l0,.24a3.73,3.73,0,0,0,.43-.36c0-.11,0-.22.08-.33A5,5,0,0,1,74,64.3Z"/><path class="cls-4" d="M78.48,62.11l-.06.18a15.54,15.54,0,0,0,1.8-.52v-.19C79.62,61.8,79,62,78.48,62.11Z"/><path class="cls-4" d="M75.09,61a6.36,6.36,0,0,1,.18-.66l-.51.55a2.26,2.26,0,0,1-.46.37l0,.23C74.52,61.38,74.8,61.21,75.09,61Z"/><path class="cls-6" d="M46,44.87c.69,0,1.12,0,1.12,0S47.62,44.89,46,44.87Z"/><path class="cls-6" d="M53.12,49.18h0Z"/><path class="cls-6" d="M62.77,52.24s-.15,0-1.05.35Z"/><path class="cls-6" d="M44,39.46a9,9,0,0,1,.17.91A2.14,2.14,0,0,0,44,39.46Z"/><path class="cls-6" d="M75.93,55.47c-.38.32-1.23,1-3.14,2.31A16.85,16.85,0,0,0,75.93,55.47Z"/><path class="cls-6" d="M39.91,36.68a.46.46,0,0,0,0-.14Z"/><path class="cls-6" d="M78.57,57a7.11,7.11,0,0,1,.81-.32A1.9,1.9,0,0,0,78.57,57Z"/><path class="cls-4" d="M75,61.41a2.76,2.76,0,0,0,.9,0l.09-.16a6.43,6.43,0,0,1-1,.07A.14.14,0,0,1,75,61.41Z"/><path class="cls-6" d="M74.75,61.34a.82.82,0,0,0,.24.07.14.14,0,0,0,0-.07Z"/><path class="cls-6" d="M50.53,44.5a6.89,6.89,0,0,0,.12-1.61A15.36,15.36,0,0,1,50.53,44.5Z"/><path class="cls-6" d="M75,61.41a.82.82,0,0,1-.24-.07H75c0-.11,0-.22.08-.32-.29.19-.57.36-.82.49-.1.67-.15,1.32-.18,1.9,0,.34,0,.64-.06.89a5,5,0,0,0,.48-.45C74.68,63.06,74.82,62.21,75,61.41Z"/><path class="cls-6" d="M77.47,59.2c.73-.62,1.26-1.1,1.26-1.1A6.85,6.85,0,0,0,77.47,59.2Z"/><path class="cls-6" d="M76,57.08c1-.62,1.53-1.07,1.53-1.07A3.44,3.44,0,0,0,76,57.08Z"/><path class="cls-4" d="M53,47.27a6.69,6.69,0,0,1-4.06.64,14.14,14.14,0,0,0,5.62.21Z"/><path class="cls-4" d="M56.29,49s-1.71,1.48-6.14,1.44-5.56-.58-5.56-.58,7.6,3,13.62.27Z"/><path class="cls-4" d="M52.31,46.11a4.74,4.74,0,0,1-.7-3.44,8.4,8.4,0,0,0,2.6,4.46Z"/><path class="cls-4" d="M60.1,50s-1.84-1.46-2.23-6c0,0,1,4.81,3,6.47Z"/><path class="cls-4" d="M67.94,53s-1.64-2.46-1.32-4.61a20.57,20.57,0,0,0,.06-4.46s.31,3.51.55,4.65a38.5,38.5,0,0,0,2.49,5.14Z"/><path class="cls-6" d="M72.23,53.93l-.3,0a9.08,9.08,0,0,1-2.25,2.25,9.08,9.08,0,0,0,2.25-2.25c-.7-.13-1.41-.25-2.12-.32a10.34,10.34,0,0,1-3.52,2.27l1-.4c1.47-.72,1-.48,1-.48s-.38.2-1,.48L64.5,56.8a9,9,0,0,1-8.65-.36s.11.91,5.16,2c3.74.8,7.15-1.15,8.67-2.23A19.62,19.62,0,0,0,72.23,53.93Z"/><path class="cls-6" d="M63.48,51.42a7.46,7.46,0,0,1-1.16-.24,31.17,31.17,0,0,1-3.41,2.15l.91-.51c-6,3.91-9.91,3.57-10.86,3.4,5.64,1.15,11.64-2.95,11.64-2.95s-.27.58-4,2.23a13.15,13.15,0,0,1-7.37.82c3.71.8,5.75-.18,8-.79A44.54,44.54,0,0,0,63,53.12a24.54,24.54,0,0,1,2.8-1.42Z"/><path class="cls-4" d="M95,53.21c-.16,0-4.67.93-6.67,1.16C62.9,57,43.16,39.22,43.16,39.22c1,1.05,2.07,2,3.14,3a45.49,45.49,0,0,1-3.69-2.9C59.92,57.11,85.75,56.54,93.05,55.66a11.19,11.19,0,0,0,2.52-.42C96.42,54.65,95,53.21,95,53.21Z"/></g></g></svg>