<svg xmlns="http://www.w3.org/2000/svg" viewBox="70 7.7 114 92"><g transform="translate(0 -952.362)"><linearGradient id="a" gradientUnits="userSpaceOnUse" x1="78.805" y1="1007.054" x2="176.315" y2="1007.054"><stop offset="0" stop-color="#1c99d6"/><stop offset="1" stop-color="#32c2e4"/></linearGradient><path fill="url(#a)" d="M89 971.9c-5.6 0-10.2 4.6-10.2 10.2v49.9c0 5.6 4.6 10.2 10.2 10.2h77.1c5.6 0 10.2-4.6 10.2-10.2v-49.9c0-5.6-4.6-10.2-10.2-10.2H89zm0 6.8h77.1c1.9 0 3.4 1.5 3.4 3.4v49.9c0 1.9-1.5 3.4-3.4 3.4H89c-1.9 0-3.4-1.5-3.4-3.4v-49.9c0-1.9 1.5-3.4 3.4-3.4zm71.4 5.5c-.9.1-1.7.5-2.3 1.1l-28.1 27.5c-1.3 1.3-3.5 1.3-4.8 0l-28.1-27.5c-.7-.7-1.7-1.1-2.8-1-1.9.2-3.2 1.9-3 3.7.1.8.5 1.5 1 2.1l17.5 17.2-17.5 16.5c-1.4 1.2-1.6 3.4-.4 4.8 1.2 1.4 3.4 1.6 4.8.4l.3-.3 17.7-16.6 5.7 5.6c4 3.9 10.4 3.9 14.3 0l5.7-5.6 17.7 16.7c1.3 1.4 3.4 1.4 4.8.2 1.4-1.3 1.4-3.4.2-4.8l-.3-.3-17.5-16.5 17.5-17.2c1.4-1.2 1.6-3.4.4-4.8-.7-.8-1.7-1.3-2.8-1.2z"/></g></svg>